  0
SECTION
  2
HEADER
  9
$ACADVER
  1
AC1024
  9
$ACADMAINTVER
 70
6
  9
$DWGCODEPAGE
  3
ANSI_1252
  9
$LASTSAVEDBY
  1
ezdxf
  9
$INSBASE
 10
0.0
 20
0.0
 30
0.0
  9
$EXTMIN
 10
1e+20
 20
1e+20
 30
1e+20
  9
$EXTMAX
 10
-1e+20
 20
-1e+20
 30
-1e+20
  9
$LIMMIN
 10
0.0
 20
0.0
  9
$LIMMAX
 10
420.0
 20
297.0
  9
$ORTHOMODE
 70
0
  9
$REGENMODE
 70
1
  9
$FILLMODE
 70
1
  9
$QTEXTMODE
 70
0
  9
$MIRRTEXT
 70
1
  9
$LTSCALE
 40
1.0
  9
$ATTMODE
 70
1
  9
$TEXTSIZE
 40
2.5
  9
$TRACEWID
 40
1.0
  9
$TEXTSTYLE
  7
OpenSans
  9
$CLAYER
  8
0
  9
$CELTYPE
  6
ByLayer
  9
$CECOLOR
 62
256
  9
$CELTSCALE
 40
1.0
  9
$DISPSILH
 70
0
  9
$DIMSCALE
 40
1.0
  9
$DIMASZ
 40
0.175
  9
$DIMEXO
 40
0.125
  9
$DIMDLI
 40
3.75
  9
$DIMRND
 40
0.0
  9
$DIMDLE
 40
0.0
  9
$DIMEXE
 40
0.375
  9
$DIMTP
 40
0.0
  9
$DIMTM
 40
0.0
  9
$DIMTXT
 40
0.25
  9
$DIMCEN
 40
2.5
  9
$DIMTSZ
 40
0.0
  9
$DIMTOL
 70
0
  9
$DIMLIM
 70
0
  9
$DIMTIH
 70
0
  9
$DIMTOH
 70
0
  9
$DIMSE1
 70
0
  9
$DIMSE2
 70
0
  9
$DIMTAD
 70
1
  9
$DIMZIN
 70
12
  9
$DIMBLK
  1
ARCHTICK
  9
$DIMASO
 70
1
  9
$DIMSHO
 70
1
  9
$DIMPOST
  1

  9
$DIMAPOST
  1

  9
$DIMALT
 70
0
  9
$DIMALTD
 70
3
  9
$DIMALTF
 40
0.03937007874
  9
$DIMLFAC
 40
100.0
  9
$DIMTOFL
 70
1
  9
$DIMTVP
 40
0.0
  9
$DIMTIX
 70
0
  9
$DIMSOXD
 70
0
  9
$DIMSAH
 70
0
  9
$DIMBLK1
  1

  9
$DIMBLK2
  1

  9
$DIMSTYLE
  2
EZDXF
  9
$DIMCLRD
 70
0
  9
$DIMCLRE
 70
0
  9
$DIMCLRT
 70
0
  9
$DIMTFAC
 40
0.5
  9
$DIMGAP
 40
0.1
  9
$DIMJUST
 70
0
  9
$DIMSD1
 70
0
  9
$DIMSD2
 70
0
  9
$DIMTOLJ
 70
0
  9
$DIMTZIN
 70
8
  9
$DIMALTZ
 70
0
  9
$DIMALTTZ
 70
0
  9
$DIMUPT
 70
1
  9
$DIMDEC
 70
2
  9
$DIMTDEC
 70
2
  9
$DIMALTU
 70
2
  9
$DIMALTTD
 70
3
  9
$DIMTXSTY
  7
OpenSansCondensed-Light
  9
$DIMAUNIT
 70
0
  9
$DIMADEC
 70
2
  9
$DIMALTRND
 40
0.0
  9
$DIMAZIN
 70
3
  9
$DIMDSEP
 70
46
  9
$DIMATFIT
 70
3
  9
$DIMFRAC
 70
0
  9
$DIMLDRBLK
  1

  9
$DIMLUNIT
 70
2
  9
$DIMLWD
 70
-2
  9
$DIMLWE
 70
-2
  9
$DIMTMOVE
 70
2
  9
$DIMFXL
 40
1.0
  9
$DIMFXLON
 70
0
  9
$DIMJOGANG
 40
0.785398163397
  9
$DIMTFILL
 70
0
  9
$DIMTFILLCLR
 70
0
  9
$DIMARCSYM
 70
0
  9
$DIMLTYPE
  6

  9
$DIMLTEX1
  6

  9
$DIMLTEX2
  6

  9
$DIMTXTDIRECTION
 70
0
  9
$LUNITS
 70
2
  9
$LUPREC
 70
4
  9
$SKETCHINC
 40
1.0
  9
$FILLETRAD
 40
10.0
  9
$AUNITS
 70
0
  9
$AUPREC
 70
2
  9
$MENU
  1
.
  9
$ELEVATION
 40
0.0
  9
$PELEVATION
 40
0.0
  9
$THICKNESS
 40
0.0
  9
$LIMCHECK
 70
0
  9
$CHAMFERA
 40
0.0
  9
$CHAMFERB
 40
0.0
  9
$CHAMFERC
 40
0.0
  9
$CHAMFERD
 40
0.0
  9
$SKPOLY
 70
0
  9
$TDCREATE
 40
2461199.2847453705
  9
$TDUCREATE
 40
2458532.153996898
  9
$TDUPDATE
 40
2461199.2847453705
  9
$TDUUPDATE
 40
2458532.1544311
  9
$TDINDWG
 40
0.0
  9
$TDUSRTIMER
 40
0.0
  9
$USRTIMER
 70
1
  9
$ANGBASE
 50
0.0
  9
$ANGDIR
 70
0
  9
$PDMODE
 70
0
  9
$PDSIZE
 40
0.0
  9
$PLINEWID
 40
0.0
  9
$SPLFRAME
 70
0
  9
$SPLINETYPE
 70
6
  9
$SPLINESEGS
 70
8
  9
$HANDSEED
  5
26A
  9
$SURFTAB1
 70
6
  9
$SURFTAB2
 70
6
  9
$SURFTYPE
 70
6
  9
$SURFU
 70
6
  9
$SURFV
 70
6
  9
$UCSBASE
  2

  9
$UCSNAME
  2

  9
$UCSORG
 10
0.0
 20
0.0
 30
0.0
  9
$UCSXDIR
 10
1.0
 20
0.0
 30
0.0
  9
$UCSYDIR
 10
0.0
 20
1.0
 30
0.0
  9
$UCSORTHOREF
  2

  9
$UCSORTHOVIEW
 70
0
  9
$UCSORGTOP
 10
0.0
 20
0.0
 30
0.0
  9
$UCSORGBOTTOM
 10
0.0
 20
0.0
 30
0.0
  9
$UCSORGLEFT
 10
0.0
 20
0.0
 30
0.0
  9
$UCSORGRIGHT
 10
0.0
 20
0.0
 30
0.0
  9
$UCSORGFRONT
 10
0.0
 20
0.0
 30
0.0
  9
$UCSORGBACK
 10
0.0
 20
0.0
 30
0.0
  9
$PUCSBASE
  2

  9
$PUCSNAME
  2

  9
$PUCSORG
 10
0.0
 20
0.0
 30
0.0
  9
$PUCSXDIR
 10
1.0
 20
0.0
 30
0.0
  9
$PUCSYDIR
 10
0.0
 20
1.0
 30
0.0
  9
$PUCSORTHOREF
  2

  9
$PUCSORTHOVIEW
 70
0
  9
$PUCSORGTOP
 10
0.0
 20
0.0
 30
0.0
  9
$PUCSORGBOTTOM
 10
0.0
 20
0.0
 30
0.0
  9
$PUCSORGLEFT
 10
0.0
 20
0.0
 30
0.0
  9
$PUCSORGRIGHT
 10
0.0
 20
0.0
 30
0.0
  9
$PUCSORGFRONT
 10
0.0
 20
0.0
 30
0.0
  9
$PUCSORGBACK
 10
0.0
 20
0.0
 30
0.0
  9
$USERI1
 70
0
  9
$USERI2
 70
0
  9
$USERI3
 70
0
  9
$USERI4
 70
0
  9
$USERI5
 70
0
  9
$USERR1
 40
0.0
  9
$USERR2
 40
0.0
  9
$USERR3
 40
0.0
  9
$USERR4
 40
0.0
  9
$USERR5
 40
0.0
  9
$WORLDVIEW
 70
1
  9
$SHADEDGE
 70
3
  9
$SHADEDIF
 70
70
  9
$TILEMODE
 70
1
  9
$MAXACTVP
 70
64
  9
$PINSBASE
 10
0.0
 20
0.0
 30
0.0
  9
$PLIMCHECK
 70
0
  9
$PEXTMIN
 10
1e+20
 20
1e+20
 30
1e+20
  9
$PEXTMAX
 10
-1e+20
 20
-1e+20
 30
-1e+20
  9
$PLIMMIN
 10
0.0
 20
0.0
  9
$PLIMMAX
 10
420.0
 20
297.0
  9
$UNITMODE
 70
0
  9
$VISRETAIN
 70
1
  9
$PLINEGEN
 70
0
  9
$PSLTSCALE
 70
1
  9
$TREEDEPTH
 70
3020
  9
$CMLSTYLE
  2
Standard
  9
$CMLJUST
 70
0
  9
$CMLSCALE
 40
20.0
  9
$PROXYGRAPHICS
 70
1
  9
$MEASUREMENT
 70
1
  9
$CELWEIGHT
370
-1
  9
$ENDCAPS
280
0
  9
$JOINSTYLE
280
0
  9
$LWDISPLAY
290
0
  9
$INSUNITS
 70
4
  9
$HYPERLINKBASE
  1

  9
$STYLESHEET
  1

  9
$XEDIT
290
1
  9
$CEPSNTYPE
380
0
  9
$PSTYLEMODE
290
1
  9
$FINGERPRINTGUID
  2
{7585B4DA-F6BB-4680-873B-F08D9455D3E8}
  9
$VERSIONGUID
  2
{2E32ECFD-A884-41DB-A660-2EF9E7C0748F}
  9
$EXTNAMES
290
1
  9
$PSVPSCALE
 40
0.0
  9
$OLESTARTUP
290
0
  9
$SORTENTS
280
127
  9
$INDEXCTL
280
0
  9
$HIDETEXT
280
1
  9
$XCLIPFRAME
280
1
  9
$HALOGAP
280
0
  9
$OBSCOLOR
 70
257
  9
$OBSLTYPE
280
0
  9
$INTERSECTIONDISPLAY
280
0
  9
$INTERSECTIONCOLOR
 70
257
  9
$DIMASSOC
280
2
  9
$PROJECTNAME
  1

  9
$CAMERADISPLAY
290
0
  9
$LENSLENGTH
 40
50.0
  9
$CAMERAHEIGHT
 40
0.0
  9
$STEPSPERSEC
 40
24.0
  9
$STEPSIZE
 40
100.0
  9
$3DDWFPREC
 40
2.0
  9
$PSOLWIDTH
 40
0.005
  9
$PSOLHEIGHT
 40
0.08
  9
$LOFTANG1
 40
1.570796326795
  9
$LOFTANG2
 40
1.570796326795
  9
$LOFTMAG1
 40
0.0
  9
$LOFTMAG2
 40
0.0
  9
$LOFTPARAM
 70
7
  9
$LOFTNORMALS
280
1
  9
$LATITUDE
 40
37.795
  9
$LONGITUDE
 40
-122.394
  9
$NORTHDIRECTION
 40
0.0
  9
$TIMEZONE
 70
-8000
  9
$LIGHTGLYPHDISPLAY
280
1
  9
$TILEMODELIGHTSYNCH
280
1
  9
$CMATERIAL
347
20
  9
$SOLIDHIST
280
0
  9
$SHOWHIST
280
1
  9
$DWFFRAME
280
2
  9
$DGNFRAME
280
2
  9
$REALWORLDSCALE
290
1
  9
$INTERFERECOLOR
 62
256
  9
$CSHADOW
280
0
  9
$SHADOWPLANELOCATION
 40
0.0
  0
ENDSEC
  0
SECTION
  2
CLASSES
  0
CLASS
  1
ACDBDICTIONARYWDFLT
  2
AcDbDictionaryWithDefault
  3
ObjectDBX Classes
 90
0
 91
0
280
0
281
0
  0
CLASS
  1
SUN
  2
AcDbSun
  3
SCENEOE
 90
1153
 91
0
280
0
281
0
  0
CLASS
  1
VISUALSTYLE
  2
AcDbVisualStyle
  3
ObjectDBX Classes
 90
4095
 91
0
280
0
281
0
  0
CLASS
  1
MATERIAL
  2
AcDbMaterial
  3
ObjectDBX Classes
 90
1153
 91
0
280
0
281
0
  0
CLASS
  1
SCALE
  2
AcDbScale
  3
ObjectDBX Classes
 90
1153
 91
0
280
0
281
0
  0
CLASS
  1
TABLESTYLE
  2
AcDbTableStyle
  3
ObjectDBX Classes
 90
4095
 91
0
280
0
281
0
  0
CLASS
  1
MLEADERSTYLE
  2
AcDbMLeaderStyle
  3
ACDB_MLEADERSTYLE_CLASS
 90
4095
 91
0
280
0
281
0
  0
CLASS
  1
DICTIONARYVAR
  2
AcDbDictionaryVar
  3
ObjectDBX Classes
 90
0
 91
0
280
0
281
0
  0
CLASS
  1
CELLSTYLEMAP
  2
AcDbCellStyleMap
  3
ObjectDBX Classes
 90
1152
 91
0
280
0
281
0
  0
CLASS
  1
MENTALRAYRENDERSETTINGS
  2
AcDbMentalRayRenderSettings
  3
SCENEOE
 90
1024
 91
0
280
0
281
0
  0
CLASS
  1
ACDBDETAILVIEWSTYLE
  2
AcDbDetailViewStyle
  3
ObjectDBX Classes
 90
1025
 91
0
280
0
281
0
  0
CLASS
  1
ACDBSECTIONVIEWSTYLE
  2
AcDbSectionViewStyle
  3
ObjectDBX Classes
 90
1025
 91
0
280
0
281
0
  0
CLASS
  1
RASTERVARIABLES
  2
AcDbRasterVariables
  3
ISM
 90
0
 91
0
280
0
281
0
  0
CLASS
  1
ACDBPLACEHOLDER
  2
AcDbPlaceHolder
  3
ObjectDBX Classes
 90
0
 91
0
280
0
281
0
  0
CLASS
  1
LAYOUT
  2
AcDbLayout
  3
ObjectDBX Classes
 90
0
 91
0
280
0
281
0
  0
ENDSEC
  0
SECTION
  2
TABLES
  0
TABLE
  2
VPORT
  5
8
330
0
100
AcDbSymbolTable
 70
1
  0
VPORT
  5
23
330
8
100
AcDbSymbolTableRecord
100
AcDbViewportTableRecord
  2
*Active
 70
0
 10
0.0
 20
0.0
 11
1.0
 21
1.0
 12
0.0
 22
0.0
 13
0.0
 23
0.0
 14
0.5
 24
0.5
 15
0.5
 25
0.5
 16
0.0
 26
0.0
 36
1.0
 17
0.0
 27
0.0
 37
0.0
 40
1000.0
 41
1.34
 42
50.0
 43
0.0
 44
0.0
 50
0.0
 51
0.0
 71
0
 72
1000
 73
1
 74
3
 75
0
 76
0
 77
0
 78
0
281
0
 65
0
146
0.0
  0
ENDTAB
  0
TABLE
  2
LTYPE
  5
2
330
0
100
AcDbSymbolTable
 70
21
  0
LTYPE
  5
24
330
2
100
AcDbSymbolTableRecord
100
AcDbLinetypeTableRecord
  2
ByBlock
 70
0
  3

 72
65
 73
0
 40
0.0
  0
LTYPE
  5
25
330
2
100
AcDbSymbolTableRecord
100
AcDbLinetypeTableRecord
  2
ByLayer
 70
0
  3

 72
65
 73
0
 40
0.0
  0
LTYPE
  5
26
330
2
100
AcDbSymbolTableRecord
100
AcDbLinetypeTableRecord
  2
Continuous
 70
0
  3

 72
65
 73
0
 40
0.0
  0
LTYPE
  5
2F
330
2
100
AcDbSymbolTableRecord
100
AcDbLinetypeTableRecord
  2
CENTER
 70
0
  3
Center ____ _ ____ _ ____ _ ____ _ ____ _ ____
 72
65
 73
4
 40
5.08
 49
3.175
 74
0
 49
-0.635
 74
0
 49
0.635
 74
0
 49
-0.635
 74
0
  0
LTYPE
  5
30
330
2
100
AcDbSymbolTableRecord
100
AcDbLinetypeTableRecord
  2
CENTERX2
 70
0
  3
Center (2x) ________  __  ________  __  ________
 72
65
 73
4
 40
8.89
 49
6.35
 74
0
 49
-0.635
 74
0
 49
1.27
 74
0
 49
-0.635
 74
0
  0
LTYPE
  5
31
330
2
100
AcDbSymbolTableRecord
100
AcDbLinetypeTableRecord
  2
CENTER2
 70
0
  3
Center (.5x) ____ _ ____ _ ____ _ ____ _ ____
 72
65
 73
4
 40
2.54
 49
1.587
 74
0
 49
-0.318
 74
0
 49
0.318
 74
0
 49
-0.318
 74
0
  0
LTYPE
  5
32
330
2
100
AcDbSymbolTableRecord
100
AcDbLinetypeTableRecord
  2
DASHED
 70
0
  3
Dashed __ __ __ __ __ __ __ __ __ __ __ __ __ _
 72
65
 73
2
 40
1.524
 49
1.27
 74
0
 49
-0.254
 74
0
  0
LTYPE
  5
33
330
2
100
AcDbSymbolTableRecord
100
AcDbLinetypeTableRecord
  2
DASHEDX2
 70
0
  3
Dashed (2x) ____  ____  ____  ____  ____  ____
 72
65
 73
2
 40
3.048
 49
2.54
 74
0
 49
-0.508
 74
0
  0
LTYPE
  5
34
330
2
100
AcDbSymbolTableRecord
100
AcDbLinetypeTableRecord
  2
DASHED2
 70
0
  3
Dashed (.5x) _ _ _ _ _ _ _ _ _ _ _ _ _ _
 72
65
 73
2
 40
0.762
 49
0.635
 74
0
 49
-0.127
 74
0
  0
LTYPE
  5
35
330
2
100
AcDbSymbolTableRecord
100
AcDbLinetypeTableRecord
  2
PHANTOM
 70
0
  3
Phantom ______  __  __  ______  __  __  ______
 72
65
 73
6
 40
6.35
 49
3.175
 74
0
 49
-0.635
 74
0
 49
0.635
 74
0
 49
-0.635
 74
0
 49
0.635
 74
0
 49
-0.635
 74
0
  0
LTYPE
  5
36
330
2
100
AcDbSymbolTableRecord
100
AcDbLinetypeTableRecord
  2
PHANTOMX2
 70
0
  3
Phantom (2x)____________    ____    ____    ____________
 72
65
 73
6
 40
10.795
 49
6.35
 74
0
 49
-0.635
 74
0
 49
1.27
 74
0
 49
-0.635
 74
0
 49
1.27
 74
0
 49
-0.635
 74
0
  0
LTYPE
  5
37
330
2
100
AcDbSymbolTableRecord
100
AcDbLinetypeTableRecord
  2
PHANTOM2
 70
0
  3
Phantom (.5x) ___ _ _ ___ _ _ ___ _ _ ___ _ _ ___
 72
65
 73
6
 40
3.175
 49
1.587
 74
0
 49
-0.318
 74
0
 49
0.318
 74
0
 49
-0.318
 74
0
 49
0.318
 74
0
 49
-0.318
 74
0
  0
LTYPE
  5
38
330
2
100
AcDbSymbolTableRecord
100
AcDbLinetypeTableRecord
  2
DASHDOT
 70
0
  3
Dash dot __ . __ . __ . __ . __ . __ . __ . __
 72
65
 73
4
 40
3.556
 49
2.54
 74
0
 49
-0.508
 74
0
 49
0.0
 74
0
 49
-0.508
 74
0
  0
LTYPE
  5
39
330
2
100
AcDbSymbolTableRecord
100
AcDbLinetypeTableRecord
  2
DASHDOTX2
 70
0
  3
Dash dot (2x) ____  .  ____  .  ____  .  ____
 72
65
 73
4
 40
6.096
 49
5.08
 74
0
 49
-0.508
 74
0
 49
0.0
 74
0
 49
-0.508
 74
0
  0
LTYPE
  5
3A
330
2
100
AcDbSymbolTableRecord
100
AcDbLinetypeTableRecord
  2
DASHDOT2
 70
0
  3
Dash dot (.5x) _ . _ . _ . _ . _ . _ . _ . _
 72
65
 73
4
 40
1.778
 49
1.27
 74
0
 49
-0.254
 74
0
 49
0.0
 74
0
 49
-0.254
 74
0
  0
LTYPE
  5
3B
330
2
100
AcDbSymbolTableRecord
100
AcDbLinetypeTableRecord
  2
DOT
 70
0
  3
Dot .  .  .  .  .  .  .  .  .  .  .  .  .  .  .  .
 72
65
 73
2
 40
0.508
 49
0.0
 74
0
 49
-0.508
 74
0
  0
LTYPE
  5
3C
330
2
100
AcDbSymbolTableRecord
100
AcDbLinetypeTableRecord
  2
DOTX2
 70
0
  3
Dot (2x) .    .    .    .    .    .    .    . 
 72
65
 73
2
 40
1.016
 49
0.0
 74
0
 49
-1.016
 74
0
  0
LTYPE
  5
3D
330
2
100
AcDbSymbolTableRecord
100
AcDbLinetypeTableRecord
  2
DOT2
 70
0
  3
Dot (.5) . . . . . . . . . . . . . . . . . . . 
 72
65
 73
2
 40
0.254
 49
0.0
 74
0
 49
-0.254
 74
0
  0
LTYPE
  5
3E
330
2
100
AcDbSymbolTableRecord
100
AcDbLinetypeTableRecord
  2
DIVIDE
 70
0
  3
Divide __ . . __ . . __ . . __ . . __ . . __
 72
65
 73
6
 40
4.064
 49
2.54
 74
0
 49
-0.508
 74
0
 49
0.0
 74
0
 49
-0.508
 74
0
 49
0.0
 74
0
 49
-0.508
 74
0
  0
LTYPE
  5
3F
330
2
100
AcDbSymbolTableRecord
100
AcDbLinetypeTableRecord
  2
DIVIDEX2
 70
0
  3
Divide (2x) ____  . .  ____  . .  ____  . .  ____
 72
65
 73
6
 40
6.604
 49
5.08
 74
0
 49
-0.508
 74
0
 49
0.0
 74
0
 49
-0.508
 74
0
 49
0.0
 74
0
 49
-0.508
 74
0
  0
LTYPE
  5
40
330
2
100
AcDbSymbolTableRecord
100
AcDbLinetypeTableRecord
  2
DIVIDE2
 70
0
  3
Divide(.5x) _ . _ . _ . _ . _ . _ . _ . _
 72
65
 73
6
 40
2.032
 49
1.27
 74
0
 49
-0.254
 74
0
 49
0.0
 74
0
 49
-0.254
 74
0
 49
0.0
 74
0
 49
-0.254
 74
0
  0
ENDTAB
  0
TABLE
  2
LAYER
  5
1
330
0
100
AcDbSymbolTable
 70
14
  0
LAYER
  5
27
330
1
100
AcDbSymbolTableRecord
100
AcDbLayerTableRecord
  2
0
 70
0
 62
7
  6
Continuous
370
-3
390
13
347
21
  0
LAYER
  5
28
330
1
100
AcDbSymbolTableRecord
100
AcDbLayerTableRecord
  2
Defpoints
 70
0
 62
7
  6
Continuous
290
0
370
-3
390
13
347
21
  0
LAYER
  5
8B
330
1
100
AcDbSymbolTableRecord
100
AcDbLayerTableRecord
  2
OSI
 70
0
 62
8
  6
DASHDOT
370
18
390
13
347
21
  0
LAYER
  5
8C
330
1
100
AcDbSymbolTableRecord
100
AcDbLayerTableRecord
  2
STENY
 70
0
 62
7
  6
CONTINUOUS
370
60
390
13
347
21
  0
LAYER
  5
8D
330
1
100
AcDbSymbolTableRecord
100
AcDbLayerTableRecord
  2
PEREG
 70
0
 62
7
  6
CONTINUOUS
370
30
390
13
347
21
  0
LAYER
  5
8E
330
1
100
AcDbSymbolTableRecord
100
AcDbLayerTableRecord
  2
OKNA
 70
0
 62
5
  6
CONTINUOUS
370
25
390
13
347
21
  0
LAYER
  5
8F
330
1
100
AcDbSymbolTableRecord
100
AcDbLayerTableRecord
  2
DVERI
 70
0
 62
3
  6
CONTINUOUS
370
25
390
13
347
21
  0
LAYER
  5
90
330
1
100
AcDbSymbolTableRecord
100
AcDbLayerTableRecord
  2
OTOP
 70
0
 62
1
  6
CONTINUOUS
370
50
390
13
347
21
  0
LAYER
  5
91
330
1
100
AcDbSymbolTableRecord
100
AcDbLayerTableRecord
  2
OTOP2
 70
0
 62
1
  6
DASHED
370
50
390
13
347
21
  0
LAYER
  5
92
330
1
100
AcDbSymbolTableRecord
100
AcDbLayerTableRecord
  2
OTOP_TXT
 70
0
 62
1
  6
CONTINUOUS
370
18
390
13
347
21
  0
LAYER
  5
93
330
1
100
AcDbSymbolTableRecord
100
AcDbLayerTableRecord
  2
RAZMER
 70
0
 62
8
  6
CONTINUOUS
370
18
390
13
347
21
  0
LAYER
  5
94
330
1
100
AcDbSymbolTableRecord
100
AcDbLayerTableRecord
  2
TEXT
 70
0
 62
7
  6
CONTINUOUS
370
25
390
13
347
21
  0
LAYER
  5
95
330
1
100
AcDbSymbolTableRecord
100
AcDbLayerTableRecord
  2
RAMKA
 70
0
 62
7
  6
CONTINUOUS
370
35
390
13
347
21
  0
LAYER
  5
96
330
1
100
AcDbSymbolTableRecord
100
AcDbLayerTableRecord
  2
RAMKA_T
 70
0
 62
7
  6
CONTINUOUS
370
100
390
13
347
21
  0
ENDTAB
  0
TABLE
  2
STYLE
  5
5
330
0
100
AcDbSymbolTable
 70
27
  0
STYLE
  5
29
330
5
100
AcDbSymbolTableRecord
100
AcDbTextStyleTableRecord
  2
Standard
 70
0
 40
0.0
 41
1.0
 50
0.0
 71
0
 42
2.5
  3
txt
  4

  0
STYLE
  5
41
330
5
100
AcDbSymbolTableRecord
100
AcDbTextStyleTableRecord
  2
OpenSans-Light
 70
0
 40
0.0
 41
1.0
 50
0.0
 71
0
 42
2.5
  3
OpenSans-Light.ttf
  4

  0
STYLE
  5
42
330
5
100
AcDbSymbolTableRecord
100
AcDbTextStyleTableRecord
  2
OpenSans-Light-Italic
 70
0
 40
0.0
 41
1.0
 50
0.0
 71
0
 42
2.5
  3
OpenSans-LightItalic.ttf
  4

  0
STYLE
  5
43
330
5
100
AcDbSymbolTableRecord
100
AcDbTextStyleTableRecord
  2
OpenSans
 70
0
 40
0.0
 41
1.0
 50
0.0
 71
0
 42
2.5
  3
OpenSans-Regular.ttf
  4

  0
STYLE
  5
44
330
5
100
AcDbSymbolTableRecord
100
AcDbTextStyleTableRecord
  2
OpenSans-Italic
 70
0
 40
0.0
 41
1.0
 50
0.0
 71
0
 42
2.5
  3
OpenSans-Italic.ttf
  4

  0
STYLE
  5
45
330
5
100
AcDbSymbolTableRecord
100
AcDbTextStyleTableRecord
  2
OpenSans-SemiBold
 70
0
 40
0.0
 41
1.0
 50
0.0
 71
0
 42
2.5
  3
OpenSans-SemiBold.ttf
  4

  0
STYLE
  5
46
330
5
100
AcDbSymbolTableRecord
100
AcDbTextStyleTableRecord
  2
OpenSans-SemiBoldItalic
 70
0
 40
0.0
 41
1.0
 50
0.0
 71
0
 42
2.5
  3
OpenSans-SemiBoldItalic.ttf
  4

  0
STYLE
  5
47
330
5
100
AcDbSymbolTableRecord
100
AcDbTextStyleTableRecord
  2
OpenSans-Bold
 70
0
 40
0.0
 41
1.0
 50
0.0
 71
0
 42
2.5
  3
OpenSans-Bold.ttf
  4

  0
STYLE
  5
48
330
5
100
AcDbSymbolTableRecord
100
AcDbTextStyleTableRecord
  2
OpenSans-BoldItalic
 70
0
 40
0.0
 41
1.0
 50
0.0
 71
0
 42
2.5
  3
OpenSans-BoldItalic.ttf
  4

  0
STYLE
  5
49
330
5
100
AcDbSymbolTableRecord
100
AcDbTextStyleTableRecord
  2
OpenSans-ExtraBold
 70
0
 40
0.0
 41
1.0
 50
0.0
 71
0
 42
2.5
  3
OpenSans-ExtraBold.ttf
  4

  0
STYLE
  5
4A
330
5
100
AcDbSymbolTableRecord
100
AcDbTextStyleTableRecord
  2
OpenSans-ExtraBoldItalic
 70
0
 40
0.0
 41
1.0
 50
0.0
 71
0
 42
2.5
  3
OpenSans-ExtraBoldItalic.ttf
  4

  0
STYLE
  5
4B
330
5
100
AcDbSymbolTableRecord
100
AcDbTextStyleTableRecord
  2
OpenSansCondensed-Bold
 70
0
 40
0.0
 41
1.0
 50
0.0
 71
0
 42
2.5
  3
OpenSansCondensed-Bold.ttf
  4

  0
STYLE
  5
4C
330
5
100
AcDbSymbolTableRecord
100
AcDbTextStyleTableRecord
  2
OpenSansCondensed-Light
 70
0
 40
0.0
 41
1.0
 50
0.0
 71
0
 42
2.5
  3
OpenSansCondensed-Light.ttf
  4

  0
STYLE
  5
4D
330
5
100
AcDbSymbolTableRecord
100
AcDbTextStyleTableRecord
  2
OpenSansCondensed-Italic
 70
0
 40
0.0
 41
1.0
 50
0.0
 71
0
 42
2.5
  3
OpenSansCondensed-LightItalic.ttf
  4

  0
STYLE
  5
4E
330
5
100
AcDbSymbolTableRecord
100
AcDbTextStyleTableRecord
  2
LiberationSans
 70
0
 40
0.0
 41
1.0
 50
0.0
 71
0
 42
2.5
  3
LiberationSans-Regular.ttf
  4

  0
STYLE
  5
4F
330
5
100
AcDbSymbolTableRecord
100
AcDbTextStyleTableRecord
  2
LiberationSans-Bold
 70
0
 40
0.0
 41
1.0
 50
0.0
 71
0
 42
2.5
  3
LiberationSans-Bold.ttf
  4

  0
STYLE
  5
50
330
5
100
AcDbSymbolTableRecord
100
AcDbTextStyleTableRecord
  2
LiberationSans-BoldItalic
 70
0
 40
0.0
 41
1.0
 50
0.0
 71
0
 42
2.5
  3
LiberationSans-BoldItalic.ttf
  4

  0
STYLE
  5
51
330
5
100
AcDbSymbolTableRecord
100
AcDbTextStyleTableRecord
  2
LiberationSans-Italic
 70
0
 40
0.0
 41
1.0
 50
0.0
 71
0
 42
2.5
  3
LiberationSans-Italic.ttf
  4

  0
STYLE
  5
52
330
5
100
AcDbSymbolTableRecord
100
AcDbTextStyleTableRecord
  2
LiberationSerif
 70
0
 40
0.0
 41
1.0
 50
0.0
 71
0
 42
2.5
  3
LiberationSerif-Regular.ttf
  4

  0
STYLE
  5
53
330
5
100
AcDbSymbolTableRecord
100
AcDbTextStyleTableRecord
  2
LiberationSerif-Bold
 70
0
 40
0.0
 41
1.0
 50
0.0
 71
0
 42
2.5
  3
LiberationSerif-Bold.ttf
  4

  0
STYLE
  5
54
330
5
100
AcDbSymbolTableRecord
100
AcDbTextStyleTableRecord
  2
LiberationSerif-BoldItalic
 70
0
 40
0.0
 41
1.0
 50
0.0
 71
0
 42
2.5
  3
LiberationSerif-BoldItalic.ttf
  4

  0
STYLE
  5
55
330
5
100
AcDbSymbolTableRecord
100
AcDbTextStyleTableRecord
  2
LiberationSerif-Italic
 70
0
 40
0.0
 41
1.0
 50
0.0
 71
0
 42
2.5
  3
LiberationSerif-Italic.ttf
  4

  0
STYLE
  5
56
330
5
100
AcDbSymbolTableRecord
100
AcDbTextStyleTableRecord
  2
LiberationMono
 70
0
 40
0.0
 41
1.0
 50
0.0
 71
0
 42
2.5
  3
LiberationMono-Regular.ttf
  4

  0
STYLE
  5
57
330
5
100
AcDbSymbolTableRecord
100
AcDbTextStyleTableRecord
  2
LiberationMono-Bold
 70
0
 40
0.0
 41
1.0
 50
0.0
 71
0
 42
2.5
  3
LiberationMono-Bold.ttf
  4

  0
STYLE
  5
58
330
5
100
AcDbSymbolTableRecord
100
AcDbTextStyleTableRecord
  2
LiberationMono-BoldItalic
 70
0
 40
0.0
 41
1.0
 50
0.0
 71
0
 42
2.5
  3
LiberationMono-BoldItalic.ttf
  4

  0
STYLE
  5
59
330
5
100
AcDbSymbolTableRecord
100
AcDbTextStyleTableRecord
  2
LiberationMono-Italic
 70
0
 40
0.0
 41
1.0
 50
0.0
 71
0
 42
2.5
  3
LiberationMono-Italic.ttf
  4

  0
STYLE
  5
8A
330
5
100
AcDbSymbolTableRecord
100
AcDbTextStyleTableRecord
  2
GOST
 70
0
 40
0.0
 41
1.0
 50
0.0
 71
0
 42
2.5
  3
gost_type_b.ttf
  4

  0
ENDTAB
  0
TABLE
  2
VIEW
  5
7
330
0
100
AcDbSymbolTable
 70
0
  0
ENDTAB
  0
TABLE
  2
UCS
  5
6
330
0
100
AcDbSymbolTable
 70
0
  0
ENDTAB
  0
TABLE
  2
APPID
  5
3
330
0
100
AcDbSymbolTable
 70
3
  0
APPID
  5
2A
330
3
100
AcDbSymbolTableRecord
100
AcDbRegAppTableRecord
  2
ACAD
 70
0
  0
APPID
  5
267
330
3
100
AcDbSymbolTableRecord
100
AcDbRegAppTableRecord
  2
HATCHBACKGROUNDCOLOR
 70
0
  0
APPID
  5
268
330
3
100
AcDbSymbolTableRecord
100
AcDbRegAppTableRecord
  2
EZDXF
 70
0
  0
ENDTAB
  0
TABLE
  2
DIMSTYLE
  5
4
330
0
100
AcDbSymbolTable
 70
12
100
AcDbDimStyleTable
  0
DIMSTYLE
105
2B
330
4
100
AcDbSymbolTableRecord
100
AcDbDimStyleTableRecord
  2
Standard
 70
0
 40
1.0
 41
2.5
 42
0.625
 43
3.75
 44
1.25
 45
0.0
 46
0.0
 47
0.0
 48
0.0
 49
2.5
140
2.5
141
2.5
142
0.0
143
0.03937007874
144
1.0
145
0.0
146
1.0
147
0.625
148
0.0
 69
0
 70
0
 71
0
 72
0
 73
0
 74
0
 75
0
 76
0
 77
1
 78
8
 79
3
170
0
171
3
172
1
173
0
174
0
175
0
176
0
177
0
178
0
179
2
271
2
272
2
273
2
274
3
275
0
276
0
277
2
278
44
279
0
280
0
281
0
282
0
283
0
284
8
285
0
286
0
288
0
289
3
290
0
371
-2
372
-2
  0
DIMSTYLE
105
73
330
4
100
AcDbSymbolTableRecord
100
AcDbDimStyleTableRecord
  2
EZDXF
 70
0
 40
1.0
 41
0.175
 42
0.125
 43
3.75
 44
0.375
 45
0.0
 46
0.0
 47
0.0
 48
0.0
 49
2.5
140
0.25
141
2.5
142
0.0
143
0.03937007874
144
100.0
145
0.0
146
0.5
147
0.1
148
0.0
 69
0
 70
0
 71
0
 72
0
 73
0
 74
0
 75
0
 76
0
 77
1
 78
12
 79
3
170
0
171
3
172
1
173
0
174
0
175
0
176
0
177
0
178
0
179
2
271
2
272
2
273
2
274
3
275
0
276
0
277
2
278
46
279
2
280
0
281
0
282
0
283
0
284
8
285
0
286
0
288
1
289
3
290
0
340
4C
342
74
371
-2
372
-2
  0
DIMSTYLE
105
7C
330
4
100
AcDbSymbolTableRecord
100
AcDbDimStyleTableRecord
  2
EZ_M_100_H25_CM
 70
0
 40
1.0
 41
0.25
 42
0.125
 43
3.75
 44
0.375
 45
0.0
 46
0.0
 47
0.0
 48
0.0
 49
2.5
140
0.25
141
2.5
142
0.125
143
0.03937007874
144
100.0
145
0.0
146
0.5
147
0.1
148
0.0
 69
0
 70
0
 71
0
 72
0
 73
0
 74
0
 75
0
 76
0
 77
1
 78
12
 79
3
170
0
171
3
172
1
173
0
174
0
175
0
176
0
177
0
178
0
179
2
271
2
272
2
273
2
274
3
275
0
276
0
277
2
278
46
279
2
280
0
281
0
282
0
283
0
284
8
285
0
286
0
288
1
289
3
290
0
340
4C
371
-2
372
-2
  0
DIMSTYLE
105
7D
330
4
100
AcDbSymbolTableRecord
100
AcDbDimStyleTableRecord
  2
EZ_M_50_H25_CM
 70
0
 40
1.0
 41
0.125
 42
0.0625
 43
3.75
 44
0.1875
 45
0.0
 46
0.0
 47
0.0
 48
0.0
 49
2.5
140
0.125
141
2.5
142
0.0625
143
0.03937007874
144
100.0
145
0.0
146
0.5
147
0.05
148
0.0
 69
0
 70
0
 71
0
 72
0
 73
0
 74
0
 75
0
 76
0
 77
1
 78
12
 79
3
170
0
171
3
172
1
173
0
174
0
175
0
176
0
177
0
178
0
179
2
271
2
272
2
273
2
274
3
275
0
276
0
277
2
278
46
279
2
280
0
281
0
282
0
283
0
284
8
285
0
286
0
288
1
289
3
290
0
340
4C
371
-2
372
-2
  0
DIMSTYLE
105
7E
330
4
100
AcDbSymbolTableRecord
100
AcDbDimStyleTableRecord
  2
EZ_M_25_H25_CM
 70
0
 40
1.0
 41
0.0625
 42
0.03125
 43
3.75
 44
0.09375
 45
0.0
 46
0.0
 47
0.0
 48
0.0
 49
2.5
140
0.0625
141
2.5
142
0.03125
143
0.03937007874
144
100.0
145
0.0
146
0.5
147
0.025
148
0.0
 69
0
 70
0
 71
0
 72
0
 73
0
 74
0
 75
0
 76
0
 77
1
 78
12
 79
3
170
0
171
3
172
1
173
0
174
0
175
0
176
0
177
0
178
0
179
2
271
2
272
2
273
2
274
3
275
0
276
0
277
2
278
46
279
2
280
0
281
0
282
0
283
0
284
8
285
0
286
0
288
1
289
3
290
0
340
4C
371
-2
372
-2
  0
DIMSTYLE
105
7F
330
4
100
AcDbSymbolTableRecord
100
AcDbDimStyleTableRecord
  2
EZ_M_20_H25_CM
 70
0
 40
1.0
 41
0.05
 42
0.025
 43
3.75
 44
0.07500000000000001
 45
0.0
 46
0.0
 47
0.0
 48
0.0
 49
2.5
140
0.05
141
2.5
142
0.025
143
0.03937007874
144
100.0
145
0.0
146
0.5
147
0.020000000000000004
148
0.0
 69
0
 70
0
 71
0
 72
0
 73
0
 74
0
 75
0
 76
0
 77
1
 78
12
 79
3
170
0
171
3
172
1
173
0
174
0
175
0
176
0
177
0
178
0
179
2
271
2
272
2
273
2
274
3
275
0
276
0
277
2
278
46
279
2
280
0
281
0
282
0
283
0
284
8
285
0
286
0
288
1
289
3
290
0
340
4C
371
-2
372
-2
  0
DIMSTYLE
105
80
330
4
100
AcDbSymbolTableRecord
100
AcDbDimStyleTableRecord
  2
EZ_M_10_H25_CM
 70
0
 40
1.0
 41
0.025
 42
0.0125
 43
3.75
 44
0.037500000000000006
 45
0.0
 46
0.0
 47
0.0
 48
0.0
 49
2.5
140
0.025
141
2.5
142
0.0125
143
0.03937007874
144
100.0
145
0.0
146
0.5
147
0.010000000000000002
148
0.0
 69
0
 70
0
 71
0
 72
0
 73
0
 74
0
 75
0
 76
0
 77
1
 78
12
 79
3
170
0
171
3
172
1
173
0
174
0
175
0
176
0
177
0
178
0
179
2
271
2
272
2
273
2
274
3
275
0
276
0
277
2
278
46
279
2
280
0
281
0
282
0
283
0
284
8
285
0
286
0
288
1
289
3
290
0
340
4C
371
-2
372
-2
  0
DIMSTYLE
105
81
330
4
100
AcDbSymbolTableRecord
100
AcDbDimStyleTableRecord
  2
EZ_M_5_H25_CM
 70
0
 40
1.0
 41
0.0125
 42
0.00625
 43
3.75
 44
0.018750000000000003
 45
0.0
 46
0.0
 47
0.0
 48
0.0
 49
2.5
140
0.0125
141
2.5
142
0.00625
143
0.03937007874
144
100.0
145
0.0
146
0.5
147
0.005000000000000001
148
0.0
 69
0
 70
0
 71
0
 72
0
 73
0
 74
0
 75
0
 76
0
 77
1
 78
12
 79
3
170
0
171
3
172
1
173
0
174
0
175
0
176
0
177
0
178
0
179
2
271
2
272
2
273
2
274
3
275
0
276
0
277
2
278
46
279
2
280
0
281
0
282
0
283
0
284
8
285
0
286
0
288
1
289
3
290
0
340
4C
371
-2
372
-2
  0
DIMSTYLE
105
82
330
4
100
AcDbSymbolTableRecord
100
AcDbDimStyleTableRecord
  2
EZ_M_1_H25_CM
 70
0
 40
1.0
 41
0.0025
 42
0.00125
 43
3.75
 44
0.00375
 45
0.0
 46
0.0
 47
0.0
 48
0.0
 49
2.5
140
0.0025
141
2.5
142
0.00125
143
0.03937007874
144
100.0
145
0.0
146
0.5
147
0.001
148
0.0
 69
0
 70
0
 71
0
 72
0
 73
0
 74
0
 75
0
 76
0
 77
1
 78
12
 79
3
170
0
171
3
172
1
173
0
174
0
175
0
176
0
177
0
178
0
179
2
271
2
272
2
273
2
274
3
275
0
276
0
277
2
278
46
279
2
280
0
281
0
282
0
283
0
284
8
285
0
286
0
288
1
289
3
290
0
340
4C
371
-2
372
-2
  0
DIMSTYLE
105
83
330
4
100
AcDbSymbolTableRecord
100
AcDbDimStyleTableRecord
  2
EZ_RADIUS
 70
0
 40
1.0
 41
0.25
 42
0.125
 43
3.75
 44
0.375
 45
0.0
 46
0.0
 47
0.0
 48
0.0
 49
2.5
140
0.25
141
0.0
142
0.0
143
0.03937007874
144
100.0
145
0.0
146
0.5
147
0.1
148
0.0
 69
0
 70
0
 71
0
 72
0
 73
0
 74
0
 75
0
 76
0
 77
1
 78
12
 79
3
170
0
171
3
172
0
173
0
174
0
175
0
176
0
177
0
178
0
179
2
271
2
272
2
273
2
274
3
275
0
276
0
277
2
278
46
279
1
280
0
281
0
282
0
283
0
284
8
285
0
286
0
288
1
289
3
290
0
340
4C
342
84
371
-2
372
-2
  0
DIMSTYLE
105
88
330
4
100
AcDbSymbolTableRecord
100
AcDbDimStyleTableRecord
  2
EZ_RADIUS_INSIDE
 70
0
 40
1.0
 41
0.25
 42
0.125
 43
3.75
 44
0.375
 45
0.0
 46
0.0
 47
0.0
 48
0.0
 49
2.5
140
0.25
141
0.0
142
0.0
143
0.03937007874
144
100.0
145
0.0
146
0.5
147
0.1
148
0.0
 69
0
 70
0
 71
0
 72
0
 73
0
 74
0
 75
0
 76
0
 77
0
 78
12
 79
3
170
0
171
3
172
0
173
0
174
1
175
0
176
0
177
0
178
0
179
2
271
2
272
2
273
2
274
3
275
0
276
0
277
2
278
46
279
0
280
0
281
0
282
0
283
0
284
8
285
0
286
0
288
1
289
0
290
0
340
4C
342
84
371
-2
372
-2
  0
DIMSTYLE
105
89
330
4
100
AcDbSymbolTableRecord
100
AcDbDimStyleTableRecord
  2
EZ_CURVED
 70
0
 40
1.0
 41
0.25
 42
0.125
 43
3.75
 44
0.375
 45
0.0
 46
0.0
 47
0.0
 48
0.0
 49
2.5
140
0.25
141
2.5
142
0.0
143
0.03937007874
144
100.0
145
0.0
146
0.5
147
0.1
148
0.0
 69
0
 70
0
 71
0
 72
0
 73
0
 74
0
 75
0
 76
0
 77
1
 78
12
 79
2
 90
2
170
0
171
3
172
1
173
0
174
0
175
0
176
0
177
0
178
0
179
2
271
2
272
2
273
2
274
3
275
0
276
0
277
2
278
46
279
2
280
0
281
0
282
0
283
0
284
8
285
0
286
0
288
1
289
3
290
0
340
4C
371
-2
372
-2
  0
ENDTAB
  0
TABLE
  2
BLOCK_RECORD
  5
9
330
0
100
AcDbSymbolTable
 70
5
  0
BLOCK_RECORD
  5
17
330
9
100
AcDbSymbolTableRecord
100
AcDbBlockTableRecord
  2
*Model_Space
340
1A
 70
0
280
1
281
0
  0
BLOCK_RECORD
  5
1B
330
9
100
AcDbSymbolTableRecord
100
AcDbBlockTableRecord
  2
*Paper_Space
340
1E
 70
0
280
1
281
0
  0
BLOCK_RECORD
  5
74
330
9
100
AcDbSymbolTableRecord
100
AcDbBlockTableRecord
  2
_ARCHTICK
340
0
 70
0
280
1
281
0
  0
BLOCK_RECORD
  5
78
330
9
100
AcDbSymbolTableRecord
100
AcDbBlockTableRecord
  2
_CLOSEDFILLED
340
0
 70
0
280
1
281
0
  0
BLOCK_RECORD
  5
84
330
9
100
AcDbSymbolTableRecord
100
AcDbBlockTableRecord
  2
_CLOSEDBLANK
340
0
 70
0
280
1
281
0
  0
ENDTAB
  0
ENDSEC
  0
SECTION
  2
BLOCKS
  0
BLOCK
  5
18
330
17
100
AcDbEntity
  8
0
100
AcDbBlockBegin
  2
*Model_Space
 70
0
 10
0.0
 20
0.0
 30
0.0
  3
*Model_Space
  1

  0
ENDBLK
  5
19
330
17
100
AcDbEntity
  8
0
100
AcDbBlockEnd
  0
BLOCK
  5
1C
330
1B
100
AcDbEntity
  8
0
100
AcDbBlockBegin
  2
*Paper_Space
 70
0
 10
0.0
 20
0.0
 30
0.0
  3
*Paper_Space
  1

  0
ENDBLK
  5
1D
330
1B
100
AcDbEntity
  8
0
100
AcDbBlockEnd
  0
BLOCK
  5
75
330
74
100
AcDbEntity
  8
0
100
AcDbBlockBegin
  2
_ARCHTICK
 70
0
 10
0.0
 20
0.0
 30
0.0
  3
_ARCHTICK
  1

  0
LWPOLYLINE
  5
77
330
74
100
AcDbEntity
  8
0
  6
BYBLOCK
 62
0
100
AcDbPolyline
 90
2
 70
0
 43
0.15
 10
-0.5
 20
-0.5
 10
0.5
 20
0.5
  0
ENDBLK
  5
76
330
74
100
AcDbEntity
  8
0
100
AcDbBlockEnd
  0
BLOCK
  5
79
330
78
100
AcDbEntity
  8
0
100
AcDbBlockBegin
  2
_CLOSEDFILLED
 70
0
 10
0.0
 20
0.0
 30
0.0
  3
_CLOSEDFILLED
  1

  0
SOLID
  5
7B
330
78
100
AcDbEntity
  8
0
  6
BYBLOCK
 62
0
100
AcDbTrace
 10
-1.0
 20
0.16439898372402537
 30
0.0
 11
0.0
 21
0.0
 31
0.0
 12
-1.0
 22
-0.16439898372402537
 32
0.0
 13
-1.0
 23
-0.16439898372402537
 33
0.0
  0
ENDBLK
  5
7A
330
78
100
AcDbEntity
  8
0
100
AcDbBlockEnd
  0
BLOCK
  5
85
330
84
100
AcDbEntity
  8
0
100
AcDbBlockBegin
  2
_CLOSEDBLANK
 70
0
 10
0.0
 20
0.0
 30
0.0
  3
_CLOSEDBLANK
  1

  0
LWPOLYLINE
  5
87
330
84
100
AcDbEntity
  8
0
  6
BYBLOCK
 62
0
100
AcDbPolyline
 90
3
 70
1
 10
-1.0
 20
0.16439898372402537
 10
0.0
 20
0.0
 10
-1.0
 20
-0.16439898372402537
  0
ENDBLK
  5
86
330
84
100
AcDbEntity
  8
0
100
AcDbBlockEnd
  0
ENDSEC
  0
SECTION
  2
ENTITIES
  0
LWPOLYLINE
  5
97
330
17
100
AcDbEntity
  8
RAMKA_T
100
AcDbPolyline
 90
5
 70
0
 10
0.0
 20
0.0
 10
84100.0
 20
0.0
 10
84100.0
 20
59400.0
 10
0.0
 20
59400.0
 10
0.0
 20
0.0
  0
LWPOLYLINE
  5
98
330
17
100
AcDbEntity
  8
RAMKA_T
100
AcDbPolyline
 90
5
 70
0
 10
2000.0
 20
500.0
 10
83600.0
 20
500.0
 10
83600.0
 20
58900.0
 10
2000.0
 20
58900.0
 10
2000.0
 20
500.0
  0
LWPOLYLINE
  5
99
330
17
100
AcDbEntity
  8
STENY
100
AcDbPolyline
 90
5
 70
0
 10
9000.0
 20
10200.0
 10
27000.0
 20
10200.0
 10
27000.0
 20
46200.0
 10
9000.0
 20
46200.0
 10
9000.0
 20
10200.0
  0
LWPOLYLINE
  5
9A
330
17
100
AcDbEntity
  8
STENY
100
AcDbPolyline
 90
5
 70
0
 10
9510.0
 20
10710.0
 10
26490.0
 20
10710.0
 10
26490.0
 20
45690.0
 10
9510.0
 20
45690.0
 10
9510.0
 20
10710.0
  0
LINE
  5
9B
330
17
100
AcDbEntity
  8
PEREG
100
AcDbLine
 10
16500.0
 20
10710.0
 30
0.0
 11
16500.0
 21
45690.0
 31
0.0
  0
LINE
  5
9C
330
17
100
AcDbEntity
  8
PEREG
100
AcDbLine
 10
19500.0
 20
10710.0
 30
0.0
 11
19500.0
 21
45690.0
 31
0.0
  0
LINE
  5
9D
330
17
100
AcDbEntity
  8
PEREG
100
AcDbLine
 10
9510.0
 20
16710.0
 30
0.0
 11
16500.0
 21
16710.0
 31
0.0
  0
LINE
  5
9E
330
17
100
AcDbEntity
  8
PEREG
100
AcDbLine
 10
9510.0
 20
20210.0
 30
0.0
 11
16500.0
 21
20210.0
 31
0.0
  0
LINE
  5
9F
330
17
100
AcDbEntity
  8
PEREG
100
AcDbLine
 10
9510.0
 20
27210.0
 30
0.0
 11
16500.0
 21
27210.0
 31
0.0
  0
LINE
  5
A0
330
17
100
AcDbEntity
  8
PEREG
100
AcDbLine
 10
9510.0
 20
31210.0
 30
0.0
 11
16500.0
 21
31210.0
 31
0.0
  0
LINE
  5
A1
330
17
100
AcDbEntity
  8
PEREG
100
AcDbLine
 10
9510.0
 20
37210.0
 30
0.0
 11
16500.0
 21
37210.0
 31
0.0
  0
LINE
  5
A2
330
17
100
AcDbEntity
  8
PEREG
100
AcDbLine
 10
9510.0
 20
41690.0
 30
0.0
 11
16500.0
 21
41690.0
 31
0.0
  0
LINE
  5
A3
330
17
100
AcDbEntity
  8
PEREG
100
AcDbLine
 10
9510.0
 20
45690.0
 30
0.0
 11
16500.0
 21
45690.0
 31
0.0
  0
LINE
  5
A4
330
17
100
AcDbEntity
  8
PEREG
100
AcDbLine
 10
19500.0
 20
17200.0
 30
0.0
 11
26490.0
 21
17200.0
 31
0.0
  0
LINE
  5
A5
330
17
100
AcDbEntity
  8
PEREG
100
AcDbLine
 10
19500.0
 20
23200.0
 30
0.0
 11
26490.0
 21
23200.0
 31
0.0
  0
LINE
  5
A6
330
17
100
AcDbEntity
  8
PEREG
100
AcDbLine
 10
19500.0
 20
29200.0
 30
0.0
 11
26490.0
 21
29200.0
 31
0.0
  0
LINE
  5
A7
330
17
100
AcDbEntity
  8
PEREG
100
AcDbLine
 10
19500.0
 20
33200.0
 30
0.0
 11
26490.0
 21
33200.0
 31
0.0
  0
LINE
  5
A8
330
17
100
AcDbEntity
  8
PEREG
100
AcDbLine
 10
19500.0
 20
37200.0
 30
0.0
 11
26490.0
 21
37200.0
 31
0.0
  0
LINE
  5
A9
330
17
100
AcDbEntity
  8
PEREG
100
AcDbLine
 10
19500.0
 20
41200.0
 30
0.0
 11
26490.0
 21
41200.0
 31
0.0
  0
LINE
  5
AA
330
17
100
AcDbEntity
  8
PEREG
100
AcDbLine
 10
19500.0
 20
45690.0
 30
0.0
 11
26490.0
 21
45690.0
 31
0.0
  0
LWPOLYLINE
  5
AB
330
17
100
AcDbEntity
  8
PEREG
100
AcDbPolyline
 90
5
 70
0
 10
16500.0
 20
39690.0
 10
19500.0
 20
39690.0
 10
19500.0
 20
45690.0
 10
16500.0
 20
45690.0
 10
16500.0
 20
39690.0
  0
LINE
  5
AC
330
17
100
AcDbEntity
  8
PEREG
100
AcDbLine
 10
17500.0
 20
40290.0
 30
0.0
 11
18500.0
 21
40290.0
 31
0.0
  0
LINE
  5
AD
330
17
100
AcDbEntity
  8
PEREG
100
AcDbLine
 10
17500.0
 20
40890.0
 30
0.0
 11
18500.0
 21
40890.0
 31
0.0
  0
LINE
  5
AE
330
17
100
AcDbEntity
  8
PEREG
100
AcDbLine
 10
17500.0
 20
41490.0
 30
0.0
 11
18500.0
 21
41490.0
 31
0.0
  0
LINE
  5
AF
330
17
100
AcDbEntity
  8
PEREG
100
AcDbLine
 10
17500.0
 20
42090.0
 30
0.0
 11
18500.0
 21
42090.0
 31
0.0
  0
LINE
  5
B0
330
17
100
AcDbEntity
  8
PEREG
100
AcDbLine
 10
17500.0
 20
42690.0
 30
0.0
 11
18500.0
 21
42690.0
 31
0.0
  0
LINE
  5
B1
330
17
100
AcDbEntity
  8
PEREG
100
AcDbLine
 10
17500.0
 20
43290.0
 30
0.0
 11
18500.0
 21
43290.0
 31
0.0
  0
LINE
  5
B2
330
17
100
AcDbEntity
  8
PEREG
100
AcDbLine
 10
17500.0
 20
43890.0
 30
0.0
 11
18500.0
 21
43890.0
 31
0.0
  0
LINE
  5
B3
330
17
100
AcDbEntity
  8
PEREG
100
AcDbLine
 10
17500.0
 20
44490.0
 30
0.0
 11
18500.0
 21
44490.0
 31
0.0
  0
LINE
  5
B4
330
17
100
AcDbEntity
  8
PEREG
100
AcDbLine
 10
17500.0
 20
45090.0
 30
0.0
 11
18500.0
 21
45090.0
 31
0.0
  0
LINE
  5
B5
330
17
100
AcDbEntity
  8
PEREG
100
AcDbLine
 10
18000.0
 20
39690.0
 30
0.0
 11
18000.0
 21
45690.0
 31
0.0
  0
LINE
  5
B6
330
17
100
AcDbEntity
  8
OSI
100
AcDbLine
 10
9000.0
 20
9000.0
 30
0.0
 11
9000.0
 21
46500.0
 31
0.0
  0
CIRCLE
  5
B7
330
17
100
AcDbEntity
  8
OSI
100
AcDbCircle
 10
9000.0
 20
8600.0
 30
0.0
 40
400.0
  0
TEXT
  5
B8
330
17
100
AcDbEntity
  8
TEXT
100
AcDbText
 10
9000.0
 20
8600.0
 30
0.0
 40
350.0
  1
1
  7
GOST
 72
1
 11
9000.0
 21
8600.0
 31
0.0
100
AcDbText
 73
2
  0
LINE
  5
B9
330
17
100
AcDbEntity
  8
OSI
100
AcDbLine
 10
15000.0
 20
9000.0
 30
0.0
 11
15000.0
 21
46500.0
 31
0.0
  0
CIRCLE
  5
BA
330
17
100
AcDbEntity
  8
OSI
100
AcDbCircle
 10
15000.0
 20
8600.0
 30
0.0
 40
400.0
  0
TEXT
  5
BB
330
17
100
AcDbEntity
  8
TEXT
100
AcDbText
 10
15000.0
 20
8600.0
 30
0.0
 40
350.0
  1
2
  7
GOST
 72
1
 11
15000.0
 21
8600.0
 31
0.0
100
AcDbText
 73
2
  0
LINE
  5
BC
330
17
100
AcDbEntity
  8
OSI
100
AcDbLine
 10
21000.0
 20
9000.0
 30
0.0
 11
21000.0
 21
46500.0
 31
0.0
  0
CIRCLE
  5
BD
330
17
100
AcDbEntity
  8
OSI
100
AcDbCircle
 10
21000.0
 20
8600.0
 30
0.0
 40
400.0
  0
TEXT
  5
BE
330
17
100
AcDbEntity
  8
TEXT
100
AcDbText
 10
21000.0
 20
8600.0
 30
0.0
 40
350.0
  1
3
  7
GOST
 72
1
 11
21000.0
 21
8600.0
 31
0.0
100
AcDbText
 73
2
  0
LINE
  5
BF
330
17
100
AcDbEntity
  8
OSI
100
AcDbLine
 10
27000.0
 20
9000.0
 30
0.0
 11
27000.0
 21
46500.0
 31
0.0
  0
CIRCLE
  5
C0
330
17
100
AcDbEntity
  8
OSI
100
AcDbCircle
 10
27000.0
 20
8600.0
 30
0.0
 40
400.0
  0
TEXT
  5
C1
330
17
100
AcDbEntity
  8
TEXT
100
AcDbText
 10
27000.0
 20
8600.0
 30
0.0
 40
350.0
  1
4
  7
GOST
 72
1
 11
27000.0
 21
8600.0
 31
0.0
100
AcDbText
 73
2
  0
LINE
  5
C2
330
17
100
AcDbEntity
  8
OSI
100
AcDbLine
 10
7800.0
 20
10200.0
 30
0.0
 11
27300.0
 21
10200.0
 31
0.0
  0
CIRCLE
  5
C3
330
17
100
AcDbEntity
  8
OSI
100
AcDbCircle
 10
7400.0
 20
10200.0
 30
0.0
 40
400.0
  0
TEXT
  5
C4
330
17
100
AcDbEntity
  8
TEXT
100
AcDbText
 10
7400.0
 20
10200.0
 30
0.0
 40
350.0
  1
А
  7
GOST
 72
1
 11
7400.0
 21
10200.0
 31
0.0
100
AcDbText
 73
2
  0
LINE
  5
C5
330
17
100
AcDbEntity
  8
OSI
100
AcDbLine
 10
7800.0
 20
19200.0
 30
0.0
 11
27300.0
 21
19200.0
 31
0.0
  0
CIRCLE
  5
C6
330
17
100
AcDbEntity
  8
OSI
100
AcDbCircle
 10
7400.0
 20
19200.0
 30
0.0
 40
400.0
  0
TEXT
  5
C7
330
17
100
AcDbEntity
  8
TEXT
100
AcDbText
 10
7400.0
 20
19200.0
 30
0.0
 40
350.0
  1
Б
  7
GOST
 72
1
 11
7400.0
 21
19200.0
 31
0.0
100
AcDbText
 73
2
  0
LINE
  5
C8
330
17
100
AcDbEntity
  8
OSI
100
AcDbLine
 10
7800.0
 20
25200.0
 30
0.0
 11
27300.0
 21
25200.0
 31
0.0
  0
CIRCLE
  5
C9
330
17
100
AcDbEntity
  8
OSI
100
AcDbCircle
 10
7400.0
 20
25200.0
 30
0.0
 40
400.0
  0
TEXT
  5
CA
330
17
100
AcDbEntity
  8
TEXT
100
AcDbText
 10
7400.0
 20
25200.0
 30
0.0
 40
350.0
  1
В
  7
GOST
 72
1
 11
7400.0
 21
25200.0
 31
0.0
100
AcDbText
 73
2
  0
LINE
  5
CB
330
17
100
AcDbEntity
  8
OSI
100
AcDbLine
 10
7800.0
 20
28200.0
 30
0.0
 11
27300.0
 21
28200.0
 31
0.0
  0
CIRCLE
  5
CC
330
17
100
AcDbEntity
  8
OSI
100
AcDbCircle
 10
7400.0
 20
28200.0
 30
0.0
 40
400.0
  0
TEXT
  5
CD
330
17
100
AcDbEntity
  8
TEXT
100
AcDbText
 10
7400.0
 20
28200.0
 30
0.0
 40
350.0
  1
Г
  7
GOST
 72
1
 11
7400.0
 21
28200.0
 31
0.0
100
AcDbText
 73
2
  0
LINE
  5
CE
330
17
100
AcDbEntity
  8
OSI
100
AcDbLine
 10
7800.0
 20
37200.0
 30
0.0
 11
27300.0
 21
37200.0
 31
0.0
  0
CIRCLE
  5
CF
330
17
100
AcDbEntity
  8
OSI
100
AcDbCircle
 10
7400.0
 20
37200.0
 30
0.0
 40
400.0
  0
TEXT
  5
D0
330
17
100
AcDbEntity
  8
TEXT
100
AcDbText
 10
7400.0
 20
37200.0
 30
0.0
 40
350.0
  1
Д
  7
GOST
 72
1
 11
7400.0
 21
37200.0
 31
0.0
100
AcDbText
 73
2
  0
LINE
  5
D1
330
17
100
AcDbEntity
  8
OSI
100
AcDbLine
 10
7800.0
 20
46200.0
 30
0.0
 11
27300.0
 21
46200.0
 31
0.0
  0
CIRCLE
  5
D2
330
17
100
AcDbEntity
  8
OSI
100
AcDbCircle
 10
7400.0
 20
46200.0
 30
0.0
 40
400.0
  0
TEXT
  5
D3
330
17
100
AcDbEntity
  8
TEXT
100
AcDbText
 10
7400.0
 20
46200.0
 30
0.0
 40
350.0
  1
Е
  7
GOST
 72
1
 11
7400.0
 21
46200.0
 31
0.0
100
AcDbText
 73
2
  0
LINE
  5
D4
330
17
100
AcDbEntity
  8
RAZMER
100
AcDbLine
 10
9000.0
 20
8400.0
 30
0.0
 11
27000.0
 21
8400.0
 31
0.0
  0
LINE
  5
D5
330
17
100
AcDbEntity
  8
RAZMER
100
AcDbLine
 10
8915.147186257615
 20
8315.147186257615
 30
0.0
 11
9084.852813742385
 21
8484.852813742385
 31
0.0
  0
LINE
  5
D6
330
17
100
AcDbEntity
  8
RAZMER
100
AcDbLine
 10
14915.147186257615
 20
8315.147186257615
 30
0.0
 11
15084.852813742385
 21
8484.852813742385
 31
0.0
  0
LINE
  5
D7
330
17
100
AcDbEntity
  8
RAZMER
100
AcDbLine
 10
20915.147186257615
 20
8315.147186257615
 30
0.0
 11
21084.852813742385
 21
8484.852813742385
 31
0.0
  0
LINE
  5
D8
330
17
100
AcDbEntity
  8
RAZMER
100
AcDbLine
 10
26915.147186257615
 20
8315.147186257615
 30
0.0
 11
27084.852813742385
 21
8484.852813742385
 31
0.0
  0
TEXT
  5
D9
330
17
100
AcDbEntity
  8
RAZMER
100
AcDbText
 10
12000.0
 20
8550.0
 30
0.0
 40
250.0
  1
6000
  7
GOST
 72
1
 11
12000.0
 21
8550.0
 31
0.0
100
AcDbText
 73
2
  0
TEXT
  5
DA
330
17
100
AcDbEntity
  8
RAZMER
100
AcDbText
 10
18000.0
 20
8550.0
 30
0.0
 40
250.0
  1
6000
  7
GOST
 72
1
 11
18000.0
 21
8550.0
 31
0.0
100
AcDbText
 73
2
  0
TEXT
  5
DB
330
17
100
AcDbEntity
  8
RAZMER
100
AcDbText
 10
24000.0
 20
8550.0
 30
0.0
 40
250.0
  1
6000
  7
GOST
 72
1
 11
24000.0
 21
8550.0
 31
0.0
100
AcDbText
 73
2
  0
LINE
  5
DC
330
17
100
AcDbEntity
  8
RAZMER
100
AcDbLine
 10
9000.0
 20
7600.0
 30
0.0
 11
27000.0
 21
7600.0
 31
0.0
  0
LINE
  5
DD
330
17
100
AcDbEntity
  8
RAZMER
100
AcDbLine
 10
8915.147186257615
 20
7515.1471862576145
 30
0.0
 11
9084.852813742385
 21
7684.8528137423855
 31
0.0
  0
LINE
  5
DE
330
17
100
AcDbEntity
  8
RAZMER
100
AcDbLine
 10
26915.147186257615
 20
7515.1471862576145
 30
0.0
 11
27084.852813742385
 21
7684.8528137423855
 31
0.0
  0
TEXT
  5
DF
330
17
100
AcDbEntity
  8
RAZMER
100
AcDbText
 10
18000.0
 20
7750.0
 30
0.0
 40
250.0
  1
18000
  7
GOST
 72
1
 11
18000.0
 21
7750.0
 31
0.0
100
AcDbText
 73
2
  0
LINE
  5
E0
330
17
100
AcDbEntity
  8
RAZMER
100
AcDbLine
 10
7200.0
 20
10200.0
 30
0.0
 11
7200.0
 21
46200.0
 31
0.0
  0
LINE
  5
E1
330
17
100
AcDbEntity
  8
RAZMER
100
AcDbLine
 10
7115.1471862576145
 20
10115.147186257615
 30
0.0
 11
7284.8528137423855
 21
10284.852813742385
 31
0.0
  0
LINE
  5
E2
330
17
100
AcDbEntity
  8
RAZMER
100
AcDbLine
 10
7115.1471862576145
 20
19115.147186257615
 30
0.0
 11
7284.8528137423855
 21
19284.852813742385
 31
0.0
  0
LINE
  5
E3
330
17
100
AcDbEntity
  8
RAZMER
100
AcDbLine
 10
7115.1471862576145
 20
25115.147186257615
 30
0.0
 11
7284.8528137423855
 21
25284.852813742385
 31
0.0
  0
LINE
  5
E4
330
17
100
AcDbEntity
  8
RAZMER
100
AcDbLine
 10
7115.1471862576145
 20
28115.147186257615
 30
0.0
 11
7284.8528137423855
 21
28284.852813742385
 31
0.0
  0
LINE
  5
E5
330
17
100
AcDbEntity
  8
RAZMER
100
AcDbLine
 10
7115.1471862576145
 20
37115.147186257615
 30
0.0
 11
7284.8528137423855
 21
37284.852813742385
 31
0.0
  0
LINE
  5
E6
330
17
100
AcDbEntity
  8
RAZMER
100
AcDbLine
 10
7115.1471862576145
 20
46115.147186257615
 30
0.0
 11
7284.8528137423855
 21
46284.852813742385
 31
0.0
  0
TEXT
  5
E7
330
17
100
AcDbEntity
  8
RAZMER
100
AcDbText
 10
7050.0
 20
14700.0
 30
0.0
 40
250.0
  1
9000
 50
90.0
  7
GOST
 72
1
 11
7050.0
 21
14700.0
 31
0.0
100
AcDbText
 73
2
  0
TEXT
  5
E8
330
17
100
AcDbEntity
  8
RAZMER
100
AcDbText
 10
7050.0
 20
22200.0
 30
0.0
 40
250.0
  1
6000
 50
90.0
  7
GOST
 72
1
 11
7050.0
 21
22200.0
 31
0.0
100
AcDbText
 73
2
  0
TEXT
  5
E9
330
17
100
AcDbEntity
  8
RAZMER
100
AcDbText
 10
7050.0
 20
26700.0
 30
0.0
 40
250.0
  1
3000
 50
90.0
  7
GOST
 72
1
 11
7050.0
 21
26700.0
 31
0.0
100
AcDbText
 73
2
  0
TEXT
  5
EA
330
17
100
AcDbEntity
  8
RAZMER
100
AcDbText
 10
7050.0
 20
32700.0
 30
0.0
 40
250.0
  1
9000
 50
90.0
  7
GOST
 72
1
 11
7050.0
 21
32700.0
 31
0.0
100
AcDbText
 73
2
  0
TEXT
  5
EB
330
17
100
AcDbEntity
  8
RAZMER
100
AcDbText
 10
7050.0
 20
41700.0
 30
0.0
 40
250.0
  1
9000
 50
90.0
  7
GOST
 72
1
 11
7050.0
 21
41700.0
 31
0.0
100
AcDbText
 73
2
  0
LINE
  5
EC
330
17
100
AcDbEntity
  8
RAZMER
100
AcDbLine
 10
6400.0
 20
10200.0
 30
0.0
 11
6400.0
 21
46200.0
 31
0.0
  0
LINE
  5
ED
330
17
100
AcDbEntity
  8
RAZMER
100
AcDbLine
 10
6315.1471862576145
 20
10115.147186257615
 30
0.0
 11
6484.8528137423855
 21
10284.852813742385
 31
0.0
  0
LINE
  5
EE
330
17
100
AcDbEntity
  8
RAZMER
100
AcDbLine
 10
6315.1471862576145
 20
46115.147186257615
 30
0.0
 11
6484.8528137423855
 21
46284.852813742385
 31
0.0
  0
TEXT
  5
EF
330
17
100
AcDbEntity
  8
RAZMER
100
AcDbText
 10
6250.0
 20
28200.0
 30
0.0
 40
250.0
  1
36000
 50
90.0
  7
GOST
 72
1
 11
6250.0
 21
28200.0
 31
0.0
100
AcDbText
 73
2
  0
LWPOLYLINE
  5
F0
330
17
100
AcDbEntity
  8
OKNA
100
AcDbPolyline
 90
5
 70
0
 10
9000.0
 20
11460.0
 10
9510.0
 20
11460.0
 10
9510.0
 20
12960.0
 10
9000.0
 20
12960.0
 10
9000.0
 20
11460.0
  0
LINE
  5
F1
330
17
100
AcDbEntity
  8
OKNA
100
AcDbLine
 10
9255.0
 20
11460.0
 30
0.0
 11
9255.0
 21
12960.0
 31
0.0
  0
LWPOLYLINE
  5
F2
330
17
100
AcDbEntity
  8
OKNA
100
AcDbPolyline
 90
5
 70
0
 10
9000.0
 20
14460.0
 10
9510.0
 20
14460.0
 10
9510.0
 20
15960.0
 10
9000.0
 20
15960.0
 10
9000.0
 20
14460.0
  0
LINE
  5
F3
330
17
100
AcDbEntity
  8
OKNA
100
AcDbLine
 10
9255.0
 20
14460.0
 30
0.0
 11
9255.0
 21
15960.0
 31
0.0
  0
LWPOLYLINE
  5
F4
330
17
100
AcDbEntity
  8
OKNA
100
AcDbPolyline
 90
5
 70
0
 10
9000.0
 20
17710.0
 10
9510.0
 20
17710.0
 10
9510.0
 20
19210.0
 10
9000.0
 20
19210.0
 10
9000.0
 20
17710.0
  0
LINE
  5
F5
330
17
100
AcDbEntity
  8
OKNA
100
AcDbLine
 10
9255.0
 20
17710.0
 30
0.0
 11
9255.0
 21
19210.0
 31
0.0
  0
LWPOLYLINE
  5
F6
330
17
100
AcDbEntity
  8
OKNA
100
AcDbPolyline
 90
5
 70
0
 10
9000.0
 20
21510.0
 10
9510.0
 20
21510.0
 10
9510.0
 20
22410.0
 10
9000.0
 20
22410.0
 10
9000.0
 20
21510.0
  0
LINE
  5
F7
330
17
100
AcDbEntity
  8
OKNA
100
AcDbLine
 10
9255.0
 20
21510.0
 30
0.0
 11
9255.0
 21
22410.0
 31
0.0
  0
LWPOLYLINE
  5
F8
330
17
100
AcDbEntity
  8
OKNA
100
AcDbPolyline
 90
5
 70
0
 10
9000.0
 20
25010.0
 10
9510.0
 20
25010.0
 10
9510.0
 20
25910.0
 10
9000.0
 20
25910.0
 10
9000.0
 20
25010.0
  0
LINE
  5
F9
330
17
100
AcDbEntity
  8
OKNA
100
AcDbLine
 10
9255.0
 20
25010.0
 30
0.0
 11
9255.0
 21
25910.0
 31
0.0
  0
LWPOLYLINE
  5
FA
330
17
100
AcDbEntity
  8
OKNA
100
AcDbPolyline
 90
5
 70
0
 10
9000.0
 20
28760.0
 10
9510.0
 20
28760.0
 10
9510.0
 20
29660.0
 10
9000.0
 20
29660.0
 10
9000.0
 20
28760.0
  0
LINE
  5
FB
330
17
100
AcDbEntity
  8
OKNA
100
AcDbLine
 10
9255.0
 20
28760.0
 30
0.0
 11
9255.0
 21
29660.0
 31
0.0
  0
LWPOLYLINE
  5
FC
330
17
100
AcDbEntity
  8
OKNA
100
AcDbPolyline
 90
5
 70
0
 10
9000.0
 20
32260.0
 10
9510.0
 20
32260.0
 10
9510.0
 20
33160.0
 10
9000.0
 20
33160.0
 10
9000.0
 20
32260.0
  0
LINE
  5
FD
330
17
100
AcDbEntity
  8
OKNA
100
AcDbLine
 10
9255.0
 20
32260.0
 30
0.0
 11
9255.0
 21
33160.0
 31
0.0
  0
LWPOLYLINE
  5
FE
330
17
100
AcDbEntity
  8
OKNA
100
AcDbPolyline
 90
5
 70
0
 10
9000.0
 20
35260.0
 10
9510.0
 20
35260.0
 10
9510.0
 20
36160.0
 10
9000.0
 20
36160.0
 10
9000.0
 20
35260.0
  0
LINE
  5
FF
330
17
100
AcDbEntity
  8
OKNA
100
AcDbLine
 10
9255.0
 20
35260.0
 30
0.0
 11
9255.0
 21
36160.0
 31
0.0
  0
LWPOLYLINE
  5
100
330
17
100
AcDbEntity
  8
OKNA
100
AcDbPolyline
 90
5
 70
0
 10
9000.0
 20
39000.0
 10
9510.0
 20
39000.0
 10
9510.0
 20
39900.0
 10
9000.0
 20
39900.0
 10
9000.0
 20
39000.0
  0
LINE
  5
101
330
17
100
AcDbEntity
  8
OKNA
100
AcDbLine
 10
9255.0
 20
39000.0
 30
0.0
 11
9255.0
 21
39900.0
 31
0.0
  0
LWPOLYLINE
  5
102
330
17
100
AcDbEntity
  8
OKNA
100
AcDbPolyline
 90
5
 70
0
 10
9000.0
 20
43240.0
 10
9510.0
 20
43240.0
 10
9510.0
 20
44140.0
 10
9000.0
 20
44140.0
 10
9000.0
 20
43240.0
  0
LINE
  5
103
330
17
100
AcDbEntity
  8
OKNA
100
AcDbLine
 10
9255.0
 20
43240.0
 30
0.0
 11
9255.0
 21
44140.0
 31
0.0
  0
LWPOLYLINE
  5
104
330
17
100
AcDbEntity
  8
OKNA
100
AcDbPolyline
 90
5
 70
0
 10
27000.0
 20
11582.5
 10
26490.0
 20
11582.5
 10
26490.0
 20
13082.5
 10
27000.0
 20
13082.5
 10
27000.0
 20
11582.5
  0
LINE
  5
105
330
17
100
AcDbEntity
  8
OKNA
100
AcDbLine
 10
26745.0
 20
11582.5
 30
0.0
 11
26745.0
 21
13082.5
 31
0.0
  0
LWPOLYLINE
  5
106
330
17
100
AcDbEntity
  8
OKNA
100
AcDbPolyline
 90
5
 70
0
 10
27000.0
 20
14827.5
 10
26490.0
 20
14827.5
 10
26490.0
 20
16327.5
 10
27000.0
 20
16327.5
 10
27000.0
 20
14827.5
  0
LINE
  5
107
330
17
100
AcDbEntity
  8
OKNA
100
AcDbLine
 10
26745.0
 20
14827.5
 30
0.0
 11
26745.0
 21
16327.5
 31
0.0
  0
LWPOLYLINE
  5
108
330
17
100
AcDbEntity
  8
OKNA
100
AcDbPolyline
 90
5
 70
0
 10
27000.0
 20
17950.0
 10
26490.0
 20
17950.0
 10
26490.0
 20
19450.0
 10
27000.0
 20
19450.0
 10
27000.0
 20
17950.0
  0
LINE
  5
109
330
17
100
AcDbEntity
  8
OKNA
100
AcDbLine
 10
26745.0
 20
17950.0
 30
0.0
 11
26745.0
 21
19450.0
 31
0.0
  0
LWPOLYLINE
  5
10A
330
17
100
AcDbEntity
  8
OKNA
100
AcDbPolyline
 90
5
 70
0
 10
27000.0
 20
20950.0
 10
26490.0
 20
20950.0
 10
26490.0
 20
22450.0
 10
27000.0
 20
22450.0
 10
27000.0
 20
20950.0
  0
LINE
  5
10B
330
17
100
AcDbEntity
  8
OKNA
100
AcDbLine
 10
26745.0
 20
20950.0
 30
0.0
 11
26745.0
 21
22450.0
 31
0.0
  0
LWPOLYLINE
  5
10C
330
17
100
AcDbEntity
  8
OKNA
100
AcDbPolyline
 90
5
 70
0
 10
27000.0
 20
23950.0
 10
26490.0
 20
23950.0
 10
26490.0
 20
25450.0
 10
27000.0
 20
25450.0
 10
27000.0
 20
23950.0
  0
LINE
  5
10D
330
17
100
AcDbEntity
  8
OKNA
100
AcDbLine
 10
26745.0
 20
23950.0
 30
0.0
 11
26745.0
 21
25450.0
 31
0.0
  0
LWPOLYLINE
  5
10E
330
17
100
AcDbEntity
  8
OKNA
100
AcDbPolyline
 90
5
 70
0
 10
27000.0
 20
26950.0
 10
26490.0
 20
26950.0
 10
26490.0
 20
28450.0
 10
27000.0
 20
28450.0
 10
27000.0
 20
26950.0
  0
LINE
  5
10F
330
17
100
AcDbEntity
  8
OKNA
100
AcDbLine
 10
26745.0
 20
26950.0
 30
0.0
 11
26745.0
 21
28450.0
 31
0.0
  0
LWPOLYLINE
  5
110
330
17
100
AcDbEntity
  8
OKNA
100
AcDbPolyline
 90
5
 70
0
 10
27000.0
 20
30750.0
 10
26490.0
 20
30750.0
 10
26490.0
 20
31650.0
 10
27000.0
 20
31650.0
 10
27000.0
 20
30750.0
  0
LINE
  5
111
330
17
100
AcDbEntity
  8
OKNA
100
AcDbLine
 10
26745.0
 20
30750.0
 30
0.0
 11
26745.0
 21
31650.0
 31
0.0
  0
LWPOLYLINE
  5
112
330
17
100
AcDbEntity
  8
OKNA
100
AcDbPolyline
 90
5
 70
0
 10
27000.0
 20
34750.0
 10
26490.0
 20
34750.0
 10
26490.0
 20
35650.0
 10
27000.0
 20
35650.0
 10
27000.0
 20
34750.0
  0
LINE
  5
113
330
17
100
AcDbEntity
  8
OKNA
100
AcDbLine
 10
26745.0
 20
34750.0
 30
0.0
 11
26745.0
 21
35650.0
 31
0.0
  0
LWPOLYLINE
  5
114
330
17
100
AcDbEntity
  8
OKNA
100
AcDbPolyline
 90
5
 70
0
 10
27000.0
 20
38750.0
 10
26490.0
 20
38750.0
 10
26490.0
 20
39650.0
 10
27000.0
 20
39650.0
 10
27000.0
 20
38750.0
  0
LINE
  5
115
330
17
100
AcDbEntity
  8
OKNA
100
AcDbLine
 10
26745.0
 20
38750.0
 30
0.0
 11
26745.0
 21
39650.0
 31
0.0
  0
LWPOLYLINE
  5
116
330
17
100
AcDbEntity
  8
OKNA
100
AcDbPolyline
 90
5
 70
0
 10
27000.0
 20
42995.0
 10
26490.0
 20
42995.0
 10
26490.0
 20
43895.0
 10
27000.0
 20
43895.0
 10
27000.0
 20
42995.0
  0
LINE
  5
117
330
17
100
AcDbEntity
  8
OKNA
100
AcDbLine
 10
26745.0
 20
42995.0
 30
0.0
 11
26745.0
 21
43895.0
 31
0.0
  0
LWPOLYLINE
  5
118
330
17
100
AcDbEntity
  8
DVERI
100
AcDbPolyline
 90
5
 70
0
 10
12255.0
 20
10200.0
 10
13755.0
 20
10200.0
 10
13755.0
 20
10710.0
 10
12255.0
 20
10710.0
 10
12255.0
 20
10200.0
  0
ARC
  5
119
330
17
100
AcDbEntity
  8
DVERI
100
AcDbCircle
 10
12255.0
 20
10710.0
 30
0.0
 40
1500.0
100
AcDbArc
 50
0.0
 51
90.0
  0
LINE
  5
11A
330
17
100
AcDbEntity
  8
DVERI
100
AcDbLine
 10
12255.0
 20
10710.0
 30
0.0
 11
12255.0
 21
12210.0
 31
0.0
  0
LWPOLYLINE
  5
11B
330
17
100
AcDbEntity
  8
OTOP
100
AcDbPolyline
 90
5
 70
0
 10
9760.0
 20
17310.0
 10
10000.0
 20
17310.0
 10
10000.0
 20
19610.0
 10
9760.0
 20
19610.0
 10
9760.0
 20
17310.0
  0
LINE
  5
11C
330
17
100
AcDbEntity
  8
OTOP
100
AcDbLine
 10
10000.0
 20
18460.0
 30
0.0
 11
16900.0
 21
18460.0
 31
0.0
  0
SOLID
  5
11D
330
17
100
AcDbEntity
  8
OTOP_TXT
420
16777215
100
AcDbTrace
 10
10640.0
 20
18498.0
 30
0.0
 11
11280.8
 21
18498.0
 31
0.0
 12
10640.0
 22
18862.0
 32
0.0
 13
11280.8
 23
18862.0
 33
0.0
  0
TEXT
  5
11E
330
17
100
AcDbEntity
  8
OTOP_TXT
100
AcDbText
 10
10700.0
 20
18680.0
 30
0.0
 40
280.0
  1
Р-1
  7
GOST
 11
10700.0
 21
18680.0
 31
0.0
100
AcDbText
 73
2
  0
LWPOLYLINE
  5
11F
330
17
100
AcDbEntity
  8
OTOP
100
AcDbPolyline
 90
5
 70
0
 10
9760.0
 20
41990.0
 10
10000.0
 20
41990.0
 10
10000.0
 20
44790.0
 10
9760.0
 20
44790.0
 10
9760.0
 20
41990.0
  0
LINE
  5
120
330
17
100
AcDbEntity
  8
OTOP
100
AcDbLine
 10
10000.0
 20
43023.333333333336
 30
0.0
 11
16900.0
 21
43023.333333333336
 31
0.0
  0
SOLID
  5
121
330
17
100
AcDbEntity
  8
OTOP_TXT
420
16777215
100
AcDbTrace
 10
10640.0
 20
43061.333333333336
 30
0.0
 11
11280.8
 21
43061.333333333336
 31
0.0
 12
10640.0
 22
43425.333333333336
 32
0.0
 13
11280.8
 23
43425.333333333336
 33
0.0
  0
TEXT
  5
122
330
17
100
AcDbEntity
  8
OTOP_TXT
100
AcDbText
 10
10700.0
 20
43243.333333333336
 30
0.0
 40
280.0
  1
Р-1
  7
GOST
 11
10700.0
 21
43243.333333333336
 31
0.0
100
AcDbText
 73
2
  0
LWPOLYLINE
  5
123
330
17
100
AcDbEntity
  8
OTOP
100
AcDbPolyline
 90
5
 70
0
 10
9760.0
 20
42590.0
 10
10000.0
 20
42590.0
 10
10000.0
 20
45390.0
 10
9760.0
 20
45390.0
 10
9760.0
 20
42590.0
  0
LINE
  5
124
330
17
100
AcDbEntity
  8
OTOP
100
AcDbLine
 10
10000.0
 20
44356.666666666664
 30
0.0
 11
16900.0
 21
44356.666666666664
 31
0.0
  0
LWPOLYLINE
  5
125
330
17
100
AcDbEntity
  8
OTOP
100
AcDbPolyline
 90
5
 70
0
 10
9760.0
 20
27810.0
 10
10000.0
 20
27810.0
 10
10000.0
 20
30610.0
 10
9760.0
 20
30610.0
 10
9760.0
 20
27810.0
  0
LINE
  5
126
330
17
100
AcDbEntity
  8
OTOP
100
AcDbLine
 10
10000.0
 20
29210.0
 30
0.0
 11
16900.0
 21
29210.0
 31
0.0
  0
SOLID
  5
127
330
17
100
AcDbEntity
  8
OTOP_TXT
420
16777215
100
AcDbTrace
 10
10640.0
 20
29248.0
 30
0.0
 11
11280.8
 21
29248.0
 31
0.0
 12
10640.0
 22
29612.0
 32
0.0
 13
11280.8
 23
29612.0
 33
0.0
  0
TEXT
  5
128
330
17
100
AcDbEntity
  8
OTOP_TXT
100
AcDbText
 10
10700.0
 20
29430.0
 30
0.0
 40
280.0
  1
Р-2
  7
GOST
 11
10700.0
 21
29430.0
 31
0.0
100
AcDbText
 73
2
  0
LWPOLYLINE
  5
129
330
17
100
AcDbEntity
  8
OTOP
100
AcDbPolyline
 90
5
 70
0
 10
26000.0
 20
37500.0
 10
26240.0
 20
37500.0
 10
26240.0
 20
40300.0
 10
26000.0
 20
40300.0
 10
26000.0
 20
37500.0
  0
LINE
  5
12A
330
17
100
AcDbEntity
  8
OTOP
100
AcDbLine
 10
26000.0
 20
38533.333333333336
 30
0.0
 11
19100.0
 21
38533.333333333336
 31
0.0
  0
SOLID
  5
12B
330
17
100
AcDbEntity
  8
OTOP_TXT
420
16777215
100
AcDbTrace
 10
24719.2
 20
38571.333333333336
 30
0.0
 11
25360.0
 21
38571.333333333336
 31
0.0
 12
24719.2
 22
38935.333333333336
 32
0.0
 13
25360.0
 23
38935.333333333336
 33
0.0
  0
TEXT
  5
12C
330
17
100
AcDbEntity
  8
OTOP_TXT
100
AcDbText
 10
25300.0
 20
38753.333333333336
 30
0.0
 40
280.0
  1
Р-2
  7
GOST
 72
2
 11
25300.0
 21
38753.333333333336
 31
0.0
100
AcDbText
 73
2
  0
LWPOLYLINE
  5
12D
330
17
100
AcDbEntity
  8
OTOP
100
AcDbPolyline
 90
5
 70
0
 10
26000.0
 20
38100.0
 10
26240.0
 20
38100.0
 10
26240.0
 20
40900.0
 10
26000.0
 20
40900.0
 10
26000.0
 20
38100.0
  0
LINE
  5
12E
330
17
100
AcDbEntity
  8
OTOP
100
AcDbLine
 10
26000.0
 20
39866.666666666664
 30
0.0
 11
19100.0
 21
39866.666666666664
 31
0.0
  0
LWPOLYLINE
  5
12F
330
17
100
AcDbEntity
  8
OTOP
100
AcDbPolyline
 90
5
 70
0
 10
26000.0
 20
29800.0
 10
26240.0
 20
29800.0
 10
26240.0
 20
32600.0
 10
26000.0
 20
32600.0
 10
26000.0
 20
29800.0
  0
LINE
  5
130
330
17
100
AcDbEntity
  8
OTOP
100
AcDbLine
 10
26000.0
 20
31200.0
 30
0.0
 11
19100.0
 21
31200.0
 31
0.0
  0
SOLID
  5
131
330
17
100
AcDbEntity
  8
OTOP_TXT
420
16777215
100
AcDbTrace
 10
24719.2
 20
31238.0
 30
0.0
 11
25360.0
 21
31238.0
 31
0.0
 12
24719.2
 22
31602.0
 32
0.0
 13
25360.0
 23
31602.0
 33
0.0
  0
TEXT
  5
132
330
17
100
AcDbEntity
  8
OTOP_TXT
100
AcDbText
 10
25300.0
 20
31420.0
 30
0.0
 40
280.0
  1
Р-2
  7
GOST
 72
2
 11
25300.0
 21
31420.0
 31
0.0
100
AcDbText
 73
2
  0
LWPOLYLINE
  5
133
330
17
100
AcDbEntity
  8
OTOP
100
AcDbPolyline
 90
5
 70
0
 10
26000.0
 20
33800.0
 10
26240.0
 20
33800.0
 10
26240.0
 20
36600.0
 10
26000.0
 20
36600.0
 10
26000.0
 20
33800.0
  0
LINE
  5
134
330
17
100
AcDbEntity
  8
OTOP
100
AcDbLine
 10
26000.0
 20
35200.0
 30
0.0
 11
19100.0
 21
35200.0
 31
0.0
  0
SOLID
  5
135
330
17
100
AcDbEntity
  8
OTOP_TXT
420
16777215
100
AcDbTrace
 10
24719.2
 20
35238.0
 30
0.0
 11
25360.0
 21
35238.0
 31
0.0
 12
24719.2
 22
35602.0
 32
0.0
 13
25360.0
 23
35602.0
 33
0.0
  0
TEXT
  5
136
330
17
100
AcDbEntity
  8
OTOP_TXT
100
AcDbText
 10
25300.0
 20
35420.0
 30
0.0
 40
280.0
  1
Р-2
  7
GOST
 72
2
 11
25300.0
 21
35420.0
 31
0.0
100
AcDbText
 73
2
  0
LWPOLYLINE
  5
137
330
17
100
AcDbEntity
  8
OTOP
100
AcDbPolyline
 90
5
 70
0
 10
9760.0
 20
32210.0
 10
10000.0
 20
32210.0
 10
10000.0
 20
36210.0
 10
9760.0
 20
36210.0
 10
9760.0
 20
32210.0
  0
LINE
  5
138
330
17
100
AcDbEntity
  8
OTOP
100
AcDbLine
 10
10000.0
 20
34210.0
 30
0.0
 11
16900.0
 21
34210.0
 31
0.0
  0
SOLID
  5
139
330
17
100
AcDbEntity
  8
OTOP_TXT
420
16777215
100
AcDbTrace
 10
10640.0
 20
34248.0
 30
0.0
 11
11280.8
 21
34248.0
 31
0.0
 12
10640.0
 22
34612.0
 32
0.0
 13
11280.8
 23
34612.0
 33
0.0
  0
TEXT
  5
13A
330
17
100
AcDbEntity
  8
OTOP_TXT
100
AcDbText
 10
10700.0
 20
34430.0
 30
0.0
 40
280.0
  1
Р-3
  7
GOST
 11
10700.0
 21
34430.0
 31
0.0
100
AcDbText
 73
2
  0
LWPOLYLINE
  5
13B
330
17
100
AcDbEntity
  8
OTOP
100
AcDbPolyline
 90
5
 70
0
 10
26000.0
 20
18200.0
 10
26240.0
 20
18200.0
 10
26240.0
 20
22200.0
 10
26000.0
 20
22200.0
 10
26000.0
 20
18200.0
  0
LINE
  5
13C
330
17
100
AcDbEntity
  8
OTOP
100
AcDbLine
 10
26000.0
 20
20200.0
 30
0.0
 11
19100.0
 21
20200.0
 31
0.0
  0
SOLID
  5
13D
330
17
100
AcDbEntity
  8
OTOP_TXT
420
16777215
100
AcDbTrace
 10
24719.2
 20
20238.0
 30
0.0
 11
25360.0
 21
20238.0
 31
0.0
 12
24719.2
 22
20602.0
 32
0.0
 13
25360.0
 23
20602.0
 33
0.0
  0
TEXT
  5
13E
330
17
100
AcDbEntity
  8
OTOP_TXT
100
AcDbText
 10
25300.0
 20
20420.0
 30
0.0
 40
280.0
  1
Р-3
  7
GOST
 72
2
 11
25300.0
 21
20420.0
 31
0.0
100
AcDbText
 73
2
  0
LWPOLYLINE
  5
13F
330
17
100
AcDbEntity
  8
OTOP
100
AcDbPolyline
 90
5
 70
0
 10
26000.0
 20
24200.0
 10
26240.0
 20
24200.0
 10
26240.0
 20
28200.0
 10
26000.0
 20
28200.0
 10
26000.0
 20
24200.0
  0
LINE
  5
140
330
17
100
AcDbEntity
  8
OTOP
100
AcDbLine
 10
26000.0
 20
26200.0
 30
0.0
 11
19100.0
 21
26200.0
 31
0.0
  0
SOLID
  5
141
330
17
100
AcDbEntity
  8
OTOP_TXT
420
16777215
100
AcDbTrace
 10
24719.2
 20
26238.0
 30
0.0
 11
25360.0
 21
26238.0
 31
0.0
 12
24719.2
 22
26602.0
 32
0.0
 13
25360.0
 23
26602.0
 33
0.0
  0
TEXT
  5
142
330
17
100
AcDbEntity
  8
OTOP_TXT
100
AcDbText
 10
25300.0
 20
26420.0
 30
0.0
 40
280.0
  1
Р-3
  7
GOST
 72
2
 11
25300.0
 21
26420.0
 31
0.0
100
AcDbText
 73
2
  0
LWPOLYLINE
  5
143
330
17
100
AcDbEntity
  8
OTOP
100
AcDbPolyline
 90
5
 70
0
 10
9760.0
 20
11710.0
 10
10000.0
 20
11710.0
 10
10000.0
 20
15710.0
 10
9760.0
 20
15710.0
 10
9760.0
 20
11710.0
  0
LINE
  5
144
330
17
100
AcDbEntity
  8
OTOP
100
AcDbLine
 10
10000.0
 20
13710.0
 30
0.0
 11
16900.0
 21
13710.0
 31
0.0
  0
SOLID
  5
145
330
17
100
AcDbEntity
  8
OTOP_TXT
420
16777215
100
AcDbTrace
 10
10640.0
 20
13748.0
 30
0.0
 11
11280.8
 21
13748.0
 31
0.0
 12
10640.0
 22
14112.0
 32
0.0
 13
11280.8
 23
14112.0
 33
0.0
  0
TEXT
  5
146
330
17
100
AcDbEntity
  8
OTOP_TXT
100
AcDbText
 10
10700.0
 20
13930.0
 30
0.0
 40
280.0
  1
Р-4
  7
GOST
 11
10700.0
 21
13930.0
 31
0.0
100
AcDbText
 73
2
  0
LWPOLYLINE
  5
147
330
17
100
AcDbEntity
  8
OTOP
100
AcDbPolyline
 90
5
 70
0
 10
9760.0
 20
21710.0
 10
10000.0
 20
21710.0
 10
10000.0
 20
25710.0
 10
9760.0
 20
25710.0
 10
9760.0
 20
21710.0
  0
LINE
  5
148
330
17
100
AcDbEntity
  8
OTOP
100
AcDbLine
 10
10000.0
 20
23710.0
 30
0.0
 11
16900.0
 21
23710.0
 31
0.0
  0
SOLID
  5
149
330
17
100
AcDbEntity
  8
OTOP_TXT
420
16777215
100
AcDbTrace
 10
10640.0
 20
23748.0
 30
0.0
 11
11280.8
 21
23748.0
 31
0.0
 12
10640.0
 22
24112.0
 32
0.0
 13
11280.8
 23
24112.0
 33
0.0
  0
TEXT
  5
14A
330
17
100
AcDbEntity
  8
OTOP_TXT
100
AcDbText
 10
10700.0
 20
23930.0
 30
0.0
 40
280.0
  1
Р-4
  7
GOST
 11
10700.0
 21
23930.0
 31
0.0
100
AcDbText
 73
2
  0
LWPOLYLINE
  5
14B
330
17
100
AcDbEntity
  8
OTOP
100
AcDbPolyline
 90
5
 70
0
 10
9760.0
 20
37810.0
 10
10000.0
 20
37810.0
 10
10000.0
 20
41090.0
 10
9760.0
 20
41090.0
 10
9760.0
 20
37810.0
  0
LINE
  5
14C
330
17
100
AcDbEntity
  8
OTOP
100
AcDbLine
 10
10000.0
 20
39450.0
 30
0.0
 11
16900.0
 21
39450.0
 31
0.0
  0
SOLID
  5
14D
330
17
100
AcDbEntity
  8
OTOP_TXT
420
16777215
100
AcDbTrace
 10
10640.0
 20
39488.0
 30
0.0
 11
11280.8
 21
39488.0
 31
0.0
 12
10640.0
 22
39852.0
 32
0.0
 13
11280.8
 23
39852.0
 33
0.0
  0
TEXT
  5
14E
330
17
100
AcDbEntity
  8
OTOP_TXT
100
AcDbText
 10
10700.0
 20
39670.0
 30
0.0
 40
280.0
  1
Р-4
  7
GOST
 11
10700.0
 21
39670.0
 31
0.0
100
AcDbText
 73
2
  0
LWPOLYLINE
  5
14F
330
17
100
AcDbEntity
  8
OTOP
100
AcDbPolyline
 90
5
 70
0
 10
26000.0
 20
41800.0
 10
26240.0
 20
41800.0
 10
26240.0
 20
45090.0
 10
26000.0
 20
45090.0
 10
26000.0
 20
41800.0
  0
LINE
  5
150
330
17
100
AcDbEntity
  8
OTOP
100
AcDbLine
 10
26000.0
 20
43445.0
 30
0.0
 11
19100.0
 21
43445.0
 31
0.0
  0
SOLID
  5
151
330
17
100
AcDbEntity
  8
OTOP_TXT
420
16777215
100
AcDbTrace
 10
24719.2
 20
43483.0
 30
0.0
 11
25360.0
 21
43483.0
 31
0.0
 12
24719.2
 22
43847.0
 32
0.0
 13
25360.0
 23
43847.0
 33
0.0
  0
TEXT
  5
152
330
17
100
AcDbEntity
  8
OTOP_TXT
100
AcDbText
 10
25300.0
 20
43665.0
 30
0.0
 40
280.0
  1
Р-4
  7
GOST
 72
2
 11
25300.0
 21
43665.0
 31
0.0
100
AcDbText
 73
2
  0
LWPOLYLINE
  5
153
330
17
100
AcDbEntity
  8
OTOP
100
AcDbPolyline
 90
5
 70
0
 10
26000.0
 20
11455.0
 10
26240.0
 20
11455.0
 10
26240.0
 20
16455.0
 10
26000.0
 20
16455.0
 10
26000.0
 20
11455.0
  0
LINE
  5
154
330
17
100
AcDbEntity
  8
OTOP
100
AcDbLine
 10
26000.0
 20
13955.0
 30
0.0
 11
19100.0
 21
13955.0
 31
0.0
  0
SOLID
  5
155
330
17
100
AcDbEntity
  8
OTOP_TXT
420
16777215
100
AcDbTrace
 10
24719.2
 20
13993.0
 30
0.0
 11
25360.0
 21
13993.0
 31
0.0
 12
24719.2
 22
14357.0
 32
0.0
 13
25360.0
 23
14357.0
 33
0.0
  0
TEXT
  5
156
330
17
100
AcDbEntity
  8
OTOP_TXT
100
AcDbText
 10
25300.0
 20
14175.0
 30
0.0
 40
280.0
  1
Р-5
  7
GOST
 72
2
 11
25300.0
 21
14175.0
 31
0.0
100
AcDbText
 73
2
  0
LWPOLYLINE
  5
157
330
17
100
AcDbEntity
  8
OTOP
100
AcDbPolyline
 90
5
 70
0
 10
17230.0
 20
15000.0
 10
17470.0
 20
15000.0
 10
17470.0
 20
18000.0
 10
17230.0
 20
18000.0
 10
17230.0
 20
15000.0
  0
LINE
  5
158
330
17
100
AcDbEntity
  8
OTOP
100
AcDbLine
 10
17230.0
 20
16500.0
 30
0.0
 11
16900.0
 21
16500.0
 31
0.0
  0
SOLID
  5
159
330
17
100
AcDbEntity
  8
OTOP_TXT
420
16777215
100
AcDbTrace
 10
18110.0
 20
16538.0
 30
0.0
 11
18750.8
 21
16538.0
 31
0.0
 12
18110.0
 22
16902.0
 32
0.0
 13
18750.8
 23
16902.0
 33
0.0
  0
TEXT
  5
15A
330
17
100
AcDbEntity
  8
OTOP_TXT
100
AcDbText
 10
18170.0
 20
16720.0
 30
0.0
 40
280.0
  1
Р-1
  7
GOST
 11
18170.0
 21
16720.0
 31
0.0
100
AcDbText
 73
2
  0
LWPOLYLINE
  5
15B
330
17
100
AcDbEntity
  8
OTOP
100
AcDbPolyline
 90
5
 70
0
 10
17180.0
 20
40900.0
 10
17420.0
 20
40900.0
 10
17420.0
 20
43900.0
 10
17180.0
 20
43900.0
 10
17180.0
 20
40900.0
  0
LINE
  5
15C
330
17
100
AcDbEntity
  8
OTOP
100
AcDbLine
 10
17180.0
 20
42400.0
 30
0.0
 11
16900.0
 21
42400.0
 31
0.0
  0
SOLID
  5
15D
330
17
100
AcDbEntity
  8
OTOP_TXT
420
16777215
100
AcDbTrace
 10
18060.0
 20
42438.0
 30
0.0
 11
18700.8
 21
42438.0
 31
0.0
 12
18060.0
 22
42802.0
 32
0.0
 13
18700.8
 23
42802.0
 33
0.0
  0
TEXT
  5
15E
330
17
100
AcDbEntity
  8
OTOP_TXT
100
AcDbText
 10
18120.0
 20
42620.0
 30
0.0
 40
280.0
  1
Р-1
  7
GOST
 11
18120.0
 21
42620.0
 31
0.0
100
AcDbText
 73
2
  0
LINE
  5
15F
330
17
100
AcDbEntity
  8
OTOP
100
AcDbLine
 10
16900.0
 20
10710.0
 30
0.0
 11
16900.0
 21
45690.0
 31
0.0
  0
LINE
  5
160
330
17
100
AcDbEntity
  8
OTOP2
100
AcDbLine
 10
19100.0
 20
10710.0
 30
0.0
 11
19100.0
 21
45690.0
 31
0.0
  0
TEXT
  5
161
330
17
100
AcDbEntity
  8
OTOP_TXT
100
AcDbText
 10
16500.0
 20
46090.0
 30
0.0
 40
280.0
  1
Т1
  7
GOST
 72
1
 11
16500.0
 21
46090.0
 31
0.0
100
AcDbText
 73
2
  0
TEXT
  5
162
330
17
100
AcDbEntity
  8
OTOP_TXT
100
AcDbText
 10
19500.0
 20
46090.0
 30
0.0
 40
280.0
  1
Т2
  7
GOST
 72
1
 11
19500.0
 21
46090.0
 31
0.0
100
AcDbText
 73
2
  0
LWPOLYLINE
  5
163
330
17
100
AcDbEntity
  8
OTOP
100
AcDbPolyline
 90
5
 70
0
 10
20300.0
 20
12110.0
 10
23000.0
 20
12110.0
 10
23000.0
 20
13910.0
 10
20300.0
 20
13910.0
 10
20300.0
 20
12110.0
  0
TEXT
  5
164
330
17
100
AcDbEntity
  8
OTOP_TXT
100
AcDbText
 10
21650.0
 20
13150.0
 30
0.0
 40
170.0
  1
Котёл ZOTA
  7
GOST
 72
1
 11
21650.0
 21
13150.0
 31
0.0
100
AcDbText
 73
2
  0
TEXT
  5
165
330
17
100
AcDbEntity
  8
OTOP_TXT
100
AcDbText
 10
21650.0
 20
12870.0
 30
0.0
 40
170.0
  1
Solid-X 72
  7
GOST
 72
1
 11
21650.0
 21
12870.0
 31
0.0
100
AcDbText
 73
2
  0
LWPOLYLINE
  5
166
330
17
100
AcDbEntity
  8
OTOP
100
AcDbPolyline
 90
5
 70
0
 10
20550.0
 20
15660.0
 10
22750.0
 20
15660.0
 10
22750.0
 20
16960.0
 10
20550.0
 20
16960.0
 10
20550.0
 20
15660.0
  0
TEXT
  5
167
330
17
100
AcDbEntity
  8
OTOP_TXT
100
AcDbText
 10
21650.0
 20
16450.0
 30
0.0
 40
170.0
  1
Насос
  7
GOST
 72
1
 11
21650.0
 21
16450.0
 31
0.0
100
AcDbText
 73
2
  0
TEXT
  5
168
330
17
100
AcDbEntity
  8
OTOP_TXT
100
AcDbText
 10
21650.0
 20
16170.0
 30
0.0
 40
170.0
  1
UPS 25-60
  7
GOST
 72
1
 11
21650.0
 21
16170.0
 31
0.0
100
AcDbText
 73
2
  0
LWPOLYLINE
  5
169
330
17
100
AcDbEntity
  8
OTOP
100
AcDbPolyline
 90
5
 70
0
 10
23950.0
 20
12110.0
 10
25950.0
 20
12110.0
 10
25950.0
 20
13910.0
 10
23950.0
 20
13910.0
 10
23950.0
 20
12110.0
  0
TEXT
  5
16A
330
17
100
AcDbEntity
  8
OTOP_TXT
100
AcDbText
 10
24950.0
 20
13150.0
 30
0.0
 40
170.0
  1
Бак Reflex
  7
GOST
 72
1
 11
24950.0
 21
13150.0
 31
0.0
100
AcDbText
 73
2
  0
TEXT
  5
16B
330
17
100
AcDbEntity
  8
OTOP_TXT
100
AcDbText
 10
24950.0
 20
12870.0
 30
0.0
 40
170.0
  1
N 500
  7
GOST
 72
1
 11
24950.0
 21
12870.0
 31
0.0
100
AcDbText
 73
2
  0
LINE
  5
16C
330
17
100
AcDbEntity
  8
OTOP
100
AcDbLine
 10
20300.0
 20
13510.0
 30
0.0
 11
16900.0
 21
13510.0
 31
0.0
  0
LINE
  5
16D
330
17
100
AcDbEntity
  8
OTOP2
100
AcDbLine
 10
20300.0
 20
12510.0
 30
0.0
 11
19100.0
 21
12510.0
 31
0.0
  0
LINE
  5
16E
330
17
100
AcDbEntity
  8
OTOP
100
AcDbLine
 10
21650.0
 20
13910.0
 30
0.0
 11
21650.0
 21
15660.0
 31
0.0
  0
LINE
  5
16F
330
17
100
AcDbEntity
  8
OTOP
100
AcDbLine
 10
23000.0
 20
13010.0
 30
0.0
 11
23950.0
 21
13010.0
 31
0.0
  0
SOLID
  5
170
330
17
100
AcDbEntity
  8
TEXT
420
16777215
100
AcDbTrace
 10
12573.0
 20
13675.0
 30
0.0
 11
13437.0
 21
13675.0
 31
0.0
 12
12573.0
 22
14065.0
 32
0.0
 13
13437.0
 23
14065.0
 33
0.0
  0
TEXT
  5
171
330
17
100
AcDbEntity
  8
TEXT
100
AcDbText
 10
13005.0
 20
13870.0
 30
0.0
 40
300.0
  1
1-01
  7
GOST
 72
1
 11
13005.0
 21
13870.0
 31
0.0
100
AcDbText
 73
2
  0
SOLID
  5
172
330
17
100
AcDbEntity
  8
TEXT
420
16777215
100
AcDbTrace
 10
12331.2
 20
13387.0
 30
0.0
 11
13678.8
 21
13387.0
 31
0.0
 12
12331.2
 22
13673.0
 32
0.0
 13
13678.8
 23
13673.0
 33
0.0
  0
TEXT
  5
173
330
17
100
AcDbEntity
  8
TEXT
100
AcDbText
 10
13005.0
 20
13530.0
 30
0.0
 40
220.00000000000003
  1
Вестибюль
  7
GOST
 72
1
 11
13005.0
 21
13530.0
 31
0.0
100
AcDbText
 73
2
  0
SOLID
  5
174
330
17
100
AcDbEntity
  8
TEXT
420
16777215
100
AcDbTrace
 10
12573.0
 20
18425.0
 30
0.0
 11
13437.0
 21
18425.0
 31
0.0
 12
12573.0
 22
18815.0
 32
0.0
 13
13437.0
 23
18815.0
 33
0.0
  0
TEXT
  5
175
330
17
100
AcDbEntity
  8
TEXT
100
AcDbText
 10
13005.0
 20
18620.0
 30
0.0
 40
300.0
  1
1-02
  7
GOST
 72
1
 11
13005.0
 21
18620.0
 31
0.0
100
AcDbText
 73
2
  0
SOLID
  5
176
330
17
100
AcDbEntity
  8
TEXT
420
16777215
100
AcDbTrace
 10
12399.4
 20
18137.0
 30
0.0
 11
13610.6
 21
18137.0
 31
0.0
 12
12399.4
 22
18423.0
 32
0.0
 13
13610.6
 23
18423.0
 33
0.0
  0
TEXT
  5
177
330
17
100
AcDbEntity
  8
TEXT
100
AcDbText
 10
13005.0
 20
18280.0
 30
0.0
 40
220.00000000000003
  1
Гардероб
  7
GOST
 72
1
 11
13005.0
 21
18280.0
 31
0.0
100
AcDbText
 73
2
  0
SOLID
  5
178
330
17
100
AcDbEntity
  8
TEXT
420
16777215
100
AcDbTrace
 10
12573.0
 20
23675.0
 30
0.0
 11
13437.0
 21
23675.0
 31
0.0
 12
12573.0
 22
24065.0
 32
0.0
 13
13437.0
 23
24065.0
 33
0.0
  0
TEXT
  5
179
330
17
100
AcDbEntity
  8
TEXT
100
AcDbText
 10
13005.0
 20
23870.0
 30
0.0
 40
300.0
  1
1-03
  7
GOST
 72
1
 11
13005.0
 21
23870.0
 31
0.0
100
AcDbText
 73
2
  0
SOLID
  5
17A
330
17
100
AcDbEntity
  8
TEXT
420
16777215
100
AcDbTrace
 10
12467.6
 20
23387.0
 30
0.0
 11
13542.4
 21
23387.0
 31
0.0
 12
12467.6
 22
23673.0
 32
0.0
 13
13542.4
 23
23673.0
 33
0.0
  0
TEXT
  5
17B
330
17
100
AcDbEntity
  8
TEXT
100
AcDbText
 10
13005.0
 20
23530.0
 30
0.0
 40
220.00000000000003
  1
Душевые
  7
GOST
 72
1
 11
13005.0
 21
23530.0
 31
0.0
100
AcDbText
 73
2
  0
SOLID
  5
17C
330
17
100
AcDbEntity
  8
TEXT
420
16777215
100
AcDbTrace
 10
12573.0
 20
29175.0
 30
0.0
 11
13437.0
 21
29175.0
 31
0.0
 12
12573.0
 22
29565.0
 32
0.0
 13
13437.0
 23
29565.0
 33
0.0
  0
TEXT
  5
17D
330
17
100
AcDbEntity
  8
TEXT
100
AcDbText
 10
13005.0
 20
29370.0
 30
0.0
 40
300.0
  1
1-04
  7
GOST
 72
1
 11
13005.0
 21
29370.0
 31
0.0
100
AcDbText
 73
2
  0
SOLID
  5
17E
330
17
100
AcDbEntity
  8
TEXT
420
16777215
100
AcDbTrace
 10
12263.0
 20
28887.0
 30
0.0
 11
13747.0
 21
28887.0
 31
0.0
 12
12263.0
 22
29173.0
 32
0.0
 13
13747.0
 23
29173.0
 33
0.0
  0
TEXT
  5
17F
330
17
100
AcDbEntity
  8
TEXT
100
AcDbText
 10
13005.0
 20
29030.0
 30
0.0
 40
220.00000000000003
  1
Умывальные
  7
GOST
 72
1
 11
13005.0
 21
29030.0
 31
0.0
100
AcDbText
 73
2
  0
SOLID
  5
180
330
17
100
AcDbEntity
  8
TEXT
420
16777215
100
AcDbTrace
 10
12573.0
 20
34175.0
 30
0.0
 11
13437.0
 21
34175.0
 31
0.0
 12
12573.0
 22
34565.0
 32
0.0
 13
13437.0
 23
34565.0
 33
0.0
  0
TEXT
  5
181
330
17
100
AcDbEntity
  8
TEXT
100
AcDbText
 10
13005.0
 20
34370.0
 30
0.0
 40
300.0
  1
1-05
  7
GOST
 72
1
 11
13005.0
 21
34370.0
 31
0.0
100
AcDbText
 73
2
  0
SOLID
  5
182
330
17
100
AcDbEntity
  8
TEXT
420
16777215
100
AcDbTrace
 10
12467.6
 20
33887.0
 30
0.0
 11
13542.4
 21
33887.0
 31
0.0
 12
12467.6
 22
34173.0
 32
0.0
 13
13542.4
 23
34173.0
 33
0.0
  0
TEXT
  5
183
330
17
100
AcDbEntity
  8
TEXT
100
AcDbText
 10
13005.0
 20
34030.0
 30
0.0
 40
220.00000000000003
  1
Санузлы
  7
GOST
 72
1
 11
13005.0
 21
34030.0
 31
0.0
100
AcDbText
 73
2
  0
SOLID
  5
184
330
17
100
AcDbEntity
  8
TEXT
420
16777215
100
AcDbTrace
 10
12573.0
 20
39415.0
 30
0.0
 11
13437.0
 21
39415.0
 31
0.0
 12
12573.0
 22
39805.0
 32
0.0
 13
13437.0
 23
39805.0
 33
0.0
  0
TEXT
  5
185
330
17
100
AcDbEntity
  8
TEXT
100
AcDbText
 10
13005.0
 20
39610.0
 30
0.0
 40
300.0
  1
1-06
  7
GOST
 72
1
 11
13005.0
 21
39610.0
 31
0.0
100
AcDbText
 73
2
  0
SOLID
  5
186
330
17
100
AcDbEntity
  8
TEXT
420
16777215
100
AcDbTrace
 10
11922.0
 20
39127.0
 30
0.0
 11
14088.0
 21
39127.0
 31
0.0
 12
11922.0
 22
39413.0
 32
0.0
 13
14088.0
 23
39413.0
 33
0.0
  0
TEXT
  5
187
330
17
100
AcDbEntity
  8
TEXT
100
AcDbText
 10
13005.0
 20
39270.0
 30
0.0
 40
220.00000000000003
  1
Клад. инвентаря
  7
GOST
 72
1
 11
13005.0
 21
39270.0
 31
0.0
100
AcDbText
 73
2
  0
SOLID
  5
188
330
17
100
AcDbEntity
  8
TEXT
420
16777215
100
AcDbTrace
 10
12573.0
 20
43655.0
 30
0.0
 11
13437.0
 21
43655.0
 31
0.0
 12
12573.0
 22
44045.0
 32
0.0
 13
13437.0
 23
44045.0
 33
0.0
  0
TEXT
  5
189
330
17
100
AcDbEntity
  8
TEXT
100
AcDbText
 10
13005.0
 20
43850.0
 30
0.0
 40
300.0
  1
1-07
  7
GOST
 72
1
 11
13005.0
 21
43850.0
 31
0.0
100
AcDbText
 73
2
  0
SOLID
  5
18A
330
17
100
AcDbEntity
  8
TEXT
420
16777215
100
AcDbTrace
 10
11990.2
 20
43367.0
 30
0.0
 11
14019.8
 21
43367.0
 31
0.0
 12
11990.2
 22
43653.0
 32
0.0
 13
14019.8
 23
43653.0
 33
0.0
  0
TEXT
  5
18B
330
17
100
AcDbEntity
  8
TEXT
100
AcDbText
 10
13005.0
 20
43510.0
 30
0.0
 40
220.00000000000003
  1
Электрощитовая
  7
GOST
 72
1
 11
13005.0
 21
43510.0
 31
0.0
100
AcDbText
 73
2
  0
SOLID
  5
18C
330
17
100
AcDbEntity
  8
TEXT
420
16777215
100
AcDbTrace
 10
22563.0
 20
16265.0
 30
0.0
 11
23427.0
 21
16265.0
 31
0.0
 12
22563.0
 22
16655.0
 32
0.0
 13
23427.0
 23
16655.0
 33
0.0
  0
TEXT
  5
18D
330
17
100
AcDbEntity
  8
TEXT
100
AcDbText
 10
22995.0
 20
16460.0
 30
0.0
 40
300.0
  1
1-08
  7
GOST
 72
1
 11
22995.0
 21
16460.0
 31
0.0
100
AcDbText
 73
2
  0
SOLID
  5
18E
330
17
100
AcDbEntity
  8
TEXT
420
16777215
100
AcDbTrace
 10
21843.8
 20
15977.0
 30
0.0
 11
24146.2
 21
15977.0
 31
0.0
 12
21843.8
 22
16263.0
 32
0.0
 13
24146.2
 23
16263.0
 33
0.0
  0
TEXT
  5
18F
330
17
100
AcDbEntity
  8
TEXT
100
AcDbText
 10
22995.0
 20
16120.0
 30
0.0
 40
220.00000000000003
  1
Электрокотельная
  7
GOST
 72
1
 11
22995.0
 21
16120.0
 31
0.0
100
AcDbText
 73
2
  0
SOLID
  5
190
330
17
100
AcDbEntity
  8
TEXT
420
16777215
100
AcDbTrace
 10
22563.0
 20
20165.0
 30
0.0
 11
23427.0
 21
20165.0
 31
0.0
 12
22563.0
 22
20555.0
 32
0.0
 13
23427.0
 23
20555.0
 33
0.0
  0
TEXT
  5
191
330
17
100
AcDbEntity
  8
TEXT
100
AcDbText
 10
22995.0
 20
20360.0
 30
0.0
 40
300.0
  1
1-09
  7
GOST
 72
1
 11
22995.0
 21
20360.0
 31
0.0
100
AcDbText
 73
2
  0
SOLID
  5
192
330
17
100
AcDbEntity
  8
TEXT
420
16777215
100
AcDbTrace
 10
21775.6
 20
19877.0
 30
0.0
 11
24214.4
 21
19877.0
 31
0.0
 12
21775.6
 22
20163.0
 32
0.0
 13
24214.4
 23
20163.0
 33
0.0
  0
TEXT
  5
193
330
17
100
AcDbEntity
  8
TEXT
100
AcDbText
 10
22995.0
 20
20020.0
 30
0.0
 40
220.00000000000003
  1
Комната персонала
  7
GOST
 72
1
 11
22995.0
 21
20020.0
 31
0.0
100
AcDbText
 73
2
  0
SOLID
  5
194
330
17
100
AcDbEntity
  8
TEXT
420
16777215
100
AcDbTrace
 10
22563.0
 20
26165.0
 30
0.0
 11
23427.0
 21
26165.0
 31
0.0
 12
22563.0
 22
26555.0
 32
0.0
 13
23427.0
 23
26555.0
 33
0.0
  0
TEXT
  5
195
330
17
100
AcDbEntity
  8
TEXT
100
AcDbText
 10
22995.0
 20
26360.0
 30
0.0
 40
300.0
  1
1-10
  7
GOST
 72
1
 11
22995.0
 21
26360.0
 31
0.0
100
AcDbText
 73
2
  0
SOLID
  5
196
330
17
100
AcDbEntity
  8
TEXT
420
16777215
100
AcDbTrace
 10
21707.4
 20
25877.0
 30
0.0
 11
24282.6
 21
25877.0
 31
0.0
 12
21707.4
 22
26163.0
 32
0.0
 13
24282.6
 23
26163.0
 33
0.0
  0
TEXT
  5
197
330
17
100
AcDbEntity
  8
TEXT
100
AcDbText
 10
22995.0
 20
26020.0
 30
0.0
 40
220.00000000000003
  1
Комн. отдыха перс.
  7
GOST
 72
1
 11
22995.0
 21
26020.0
 31
0.0
100
AcDbText
 73
2
  0
SOLID
  5
198
330
17
100
AcDbEntity
  8
TEXT
420
16777215
100
AcDbTrace
 10
22563.0
 20
31165.0
 30
0.0
 11
23427.0
 21
31165.0
 31
0.0
 12
22563.0
 22
31555.0
 32
0.0
 13
23427.0
 23
31555.0
 33
0.0
  0
TEXT
  5
199
330
17
100
AcDbEntity
  8
TEXT
100
AcDbText
 10
22995.0
 20
31360.0
 30
0.0
 40
300.0
  1
1-11
  7
GOST
 72
1
 11
22995.0
 21
31360.0
 31
0.0
100
AcDbText
 73
2
  0
SOLID
  5
19A
330
17
100
AcDbEntity
  8
TEXT
420
16777215
100
AcDbTrace
 10
21775.6
 20
30877.0
 30
0.0
 11
24214.4
 21
30877.0
 31
0.0
 12
21775.6
 22
31163.0
 32
0.0
 13
24214.4
 23
31163.0
 33
0.0
  0
TEXT
  5
19B
330
17
100
AcDbEntity
  8
TEXT
100
AcDbText
 10
22995.0
 20
31020.0
 30
0.0
 40
220.00000000000003
  1
Клад. чист. белья
  7
GOST
 72
1
 11
22995.0
 21
31020.0
 31
0.0
100
AcDbText
 73
2
  0
SOLID
  5
19C
330
17
100
AcDbEntity
  8
TEXT
420
16777215
100
AcDbTrace
 10
22563.0
 20
35165.0
 30
0.0
 11
23427.0
 21
35165.0
 31
0.0
 12
22563.0
 22
35555.0
 32
0.0
 13
23427.0
 23
35555.0
 33
0.0
  0
TEXT
  5
19D
330
17
100
AcDbEntity
  8
TEXT
100
AcDbText
 10
22995.0
 20
35360.0
 30
0.0
 40
300.0
  1
1-12
  7
GOST
 72
1
 11
22995.0
 21
35360.0
 31
0.0
100
AcDbText
 73
2
  0
SOLID
  5
19E
330
17
100
AcDbEntity
  8
TEXT
420
16777215
100
AcDbTrace
 10
21775.6
 20
34877.0
 30
0.0
 11
24214.4
 21
34877.0
 31
0.0
 12
21775.6
 22
35163.0
 32
0.0
 13
24214.4
 23
35163.0
 33
0.0
  0
TEXT
  5
19F
330
17
100
AcDbEntity
  8
TEXT
100
AcDbText
 10
22995.0
 20
35020.0
 30
0.0
 40
220.00000000000003
  1
Клад. гряз. белья
  7
GOST
 72
1
 11
22995.0
 21
35020.0
 31
0.0
100
AcDbText
 73
2
  0
SOLID
  5
1A0
330
17
100
AcDbEntity
  8
TEXT
420
16777215
100
AcDbTrace
 10
22563.0
 20
39165.0
 30
0.0
 11
23427.0
 21
39165.0
 31
0.0
 12
22563.0
 22
39555.0
 32
0.0
 13
23427.0
 23
39555.0
 33
0.0
  0
TEXT
  5
1A1
330
17
100
AcDbEntity
  8
TEXT
100
AcDbText
 10
22995.0
 20
39360.0
 30
0.0
 40
300.0
  1
1-13
  7
GOST
 72
1
 11
22995.0
 21
39360.0
 31
0.0
100
AcDbText
 73
2
  0
SOLID
  5
1A2
330
17
100
AcDbEntity
  8
TEXT
420
16777215
100
AcDbTrace
 10
22048.4
 20
38877.0
 30
0.0
 11
23941.6
 21
38877.0
 31
0.0
 12
22048.4
 22
39163.0
 32
0.0
 13
23941.6
 23
39163.0
 33
0.0
  0
TEXT
  5
1A3
330
17
100
AcDbEntity
  8
TEXT
100
AcDbText
 10
22995.0
 20
39020.0
 30
0.0
 40
220.00000000000003
  1
С/у персонала
  7
GOST
 72
1
 11
22995.0
 21
39020.0
 31
0.0
100
AcDbText
 73
2
  0
SOLID
  5
1A4
330
17
100
AcDbEntity
  8
TEXT
420
16777215
100
AcDbTrace
 10
22563.0
 20
43410.0
 30
0.0
 11
23427.0
 21
43410.0
 31
0.0
 12
22563.0
 22
43800.0
 32
0.0
 13
23427.0
 23
43800.0
 33
0.0
  0
TEXT
  5
1A5
330
17
100
AcDbEntity
  8
TEXT
100
AcDbText
 10
22995.0
 20
43605.0
 30
0.0
 40
300.0
  1
1-14
  7
GOST
 72
1
 11
22995.0
 21
43605.0
 31
0.0
100
AcDbText
 73
2
  0
SOLID
  5
1A6
330
17
100
AcDbEntity
  8
TEXT
420
16777215
100
AcDbTrace
 10
22048.4
 20
43122.0
 30
0.0
 11
23941.6
 21
43122.0
 31
0.0
 12
22048.4
 22
43408.0
 32
0.0
 13
23941.6
 23
43408.0
 33
0.0
  0
TEXT
  5
1A7
330
17
100
AcDbEntity
  8
TEXT
100
AcDbText
 10
22995.0
 20
43265.0
 30
0.0
 40
220.00000000000003
  1
Кладовая хоз.
  7
GOST
 72
1
 11
22995.0
 21
43265.0
 31
0.0
100
AcDbText
 73
2
  0
TEXT
  5
1A8
330
17
100
AcDbEntity
  8
TEXT
100
AcDbText
 10
18000.0
 20
49200.0
 30
0.0
 40
700.0
  1
План 1-го этажа. Система отопления
  7
GOST
 72
1
 11
18000.0
 21
49200.0
 31
0.0
100
AcDbText
 73
2
  0
TEXT
  5
1A9
330
17
100
AcDbEntity
  8
TEXT
100
AcDbText
 10
18000.0
 20
48400.0
 30
0.0
 40
700.0
  1
М 1:100
  7
GOST
 72
1
 11
18000.0
 21
48400.0
 31
0.0
100
AcDbText
 73
2
  0
TEXT
  5
1AA
330
17
100
AcDbEntity
  8
TEXT
100
AcDbText
 10
59000.0
 20
58500.0
 30
0.0
 40
400.0
  1
Экспликация помещений
  7
GOST
 72
1
 11
59000.0
 21
58500.0
 31
0.0
100
AcDbText
 73
2
  0
LINE
  5
1AB
330
17
100
AcDbEntity
  8
RAMKA
100
AcDbLine
 10
52800.0
 20
57500.0
 30
0.0
 11
65200.0
 21
57500.0
 31
0.0
  0
LINE
  5
1AC
330
17
100
AcDbEntity
  8
RAMKA
100
AcDbLine
 10
52800.0
 20
56700.0
 30
0.0
 11
65200.0
 21
56700.0
 31
0.0
  0
LINE
  5
1AD
330
17
100
AcDbEntity
  8
RAMKA
100
AcDbLine
 10
52800.0
 20
55900.0
 30
0.0
 11
65200.0
 21
55900.0
 31
0.0
  0
LINE
  5
1AE
330
17
100
AcDbEntity
  8
RAMKA
100
AcDbLine
 10
52800.0
 20
55100.0
 30
0.0
 11
65200.0
 21
55100.0
 31
0.0
  0
LINE
  5
1AF
330
17
100
AcDbEntity
  8
RAMKA
100
AcDbLine
 10
52800.0
 20
54300.0
 30
0.0
 11
65200.0
 21
54300.0
 31
0.0
  0
LINE
  5
1B0
330
17
100
AcDbEntity
  8
RAMKA
100
AcDbLine
 10
52800.0
 20
53500.0
 30
0.0
 11
65200.0
 21
53500.0
 31
0.0
  0
LINE
  5
1B1
330
17
100
AcDbEntity
  8
RAMKA
100
AcDbLine
 10
52800.0
 20
52700.0
 30
0.0
 11
65200.0
 21
52700.0
 31
0.0
  0
LINE
  5
1B2
330
17
100
AcDbEntity
  8
RAMKA
100
AcDbLine
 10
52800.0
 20
51900.0
 30
0.0
 11
65200.0
 21
51900.0
 31
0.0
  0
LINE
  5
1B3
330
17
100
AcDbEntity
  8
RAMKA
100
AcDbLine
 10
52800.0
 20
51100.0
 30
0.0
 11
65200.0
 21
51100.0
 31
0.0
  0
LINE
  5
1B4
330
17
100
AcDbEntity
  8
RAMKA
100
AcDbLine
 10
52800.0
 20
50300.0
 30
0.0
 11
65200.0
 21
50300.0
 31
0.0
  0
LINE
  5
1B5
330
17
100
AcDbEntity
  8
RAMKA
100
AcDbLine
 10
52800.0
 20
49500.0
 30
0.0
 11
65200.0
 21
49500.0
 31
0.0
  0
LINE
  5
1B6
330
17
100
AcDbEntity
  8
RAMKA
100
AcDbLine
 10
52800.0
 20
48700.0
 30
0.0
 11
65200.0
 21
48700.0
 31
0.0
  0
LINE
  5
1B7
330
17
100
AcDbEntity
  8
RAMKA
100
AcDbLine
 10
52800.0
 20
47900.0
 30
0.0
 11
65200.0
 21
47900.0
 31
0.0
  0
LINE
  5
1B8
330
17
100
AcDbEntity
  8
RAMKA
100
AcDbLine
 10
52800.0
 20
47100.0
 30
0.0
 11
65200.0
 21
47100.0
 31
0.0
  0
LINE
  5
1B9
330
17
100
AcDbEntity
  8
RAMKA
100
AcDbLine
 10
52800.0
 20
46300.0
 30
0.0
 11
65200.0
 21
46300.0
 31
0.0
  0
LINE
  5
1BA
330
17
100
AcDbEntity
  8
RAMKA
100
AcDbLine
 10
52800.0
 20
45500.0
 30
0.0
 11
65200.0
 21
45500.0
 31
0.0
  0
LINE
  5
1BB
330
17
100
AcDbEntity
  8
RAMKA
100
AcDbLine
 10
52800.0
 20
44700.0
 30
0.0
 11
65200.0
 21
44700.0
 31
0.0
  0
LINE
  5
1BC
330
17
100
AcDbEntity
  8
RAMKA
100
AcDbLine
 10
52800.0
 20
57500.0
 30
0.0
 11
52800.0
 21
44700.0
 31
0.0
  0
LINE
  5
1BD
330
17
100
AcDbEntity
  8
RAMKA
100
AcDbLine
 10
54000.0
 20
57500.0
 30
0.0
 11
54000.0
 21
44700.0
 31
0.0
  0
LINE
  5
1BE
330
17
100
AcDbEntity
  8
RAMKA
100
AcDbLine
 10
61000.0
 20
57500.0
 30
0.0
 11
61000.0
 21
44700.0
 31
0.0
  0
LINE
  5
1BF
330
17
100
AcDbEntity
  8
RAMKA
100
AcDbLine
 10
63600.0
 20
57500.0
 30
0.0
 11
63600.0
 21
44700.0
 31
0.0
  0
LINE
  5
1C0
330
17
100
AcDbEntity
  8
RAMKA
100
AcDbLine
 10
65200.0
 20
57500.0
 30
0.0
 11
65200.0
 21
44700.0
 31
0.0
  0
TEXT
  5
1C1
330
17
100
AcDbEntity
  8
TEXT
100
AcDbText
 10
53400.0
 20
57100.0
 30
0.0
 40
300.0
  1
№
  7
GOST
 72
1
 11
53400.0
 21
57100.0
 31
0.0
100
AcDbText
 73
2
  0
TEXT
  5
1C2
330
17
100
AcDbEntity
  8
TEXT
100
AcDbText
 10
57500.0
 20
57100.0
 30
0.0
 40
300.0
  1
Наименование
  7
GOST
 72
1
 11
57500.0
 21
57100.0
 31
0.0
100
AcDbText
 73
2
  0
TEXT
  5
1C3
330
17
100
AcDbEntity
  8
TEXT
100
AcDbText
 10
62300.0
 20
57100.0
 30
0.0
 40
300.0
  1
Размеры, м
  7
GOST
 72
1
 11
62300.0
 21
57100.0
 31
0.0
100
AcDbText
 73
2
  0
TEXT
  5
1C4
330
17
100
AcDbEntity
  8
TEXT
100
AcDbText
 10
64400.0
 20
57100.0
 30
0.0
 40
300.0
  1
S, м²
  7
GOST
 72
1
 11
64400.0
 21
57100.0
 31
0.0
100
AcDbText
 73
2
  0
TEXT
  5
1C5
330
17
100
AcDbEntity
  8
TEXT
100
AcDbText
 10
53400.0
 20
56300.0
 30
0.0
 40
260.0
  1
1-01
  7
GOST
 72
1
 11
53400.0
 21
56300.0
 31
0.0
100
AcDbText
 73
2
  0
TEXT
  5
1C6
330
17
100
AcDbEntity
  8
TEXT
100
AcDbText
 10
54200.0
 20
56300.0
 30
0.0
 40
260.0
  1
Вестибюль (главный вход)
  7
GOST
 11
54200.0
 21
56300.0
 31
0.0
100
AcDbText
 73
2
  0
TEXT
  5
1C7
330
17
100
AcDbEntity
  8
TEXT
100
AcDbText
 10
62300.0
 20
56300.0
 30
0.0
 40
260.0
  1
6×6,99
  7
GOST
 72
1
 11
62300.0
 21
56300.0
 31
0.0
100
AcDbText
 73
2
  0
TEXT
  5
1C8
330
17
100
AcDbEntity
  8
TEXT
100
AcDbText
 10
64400.0
 20
56300.0
 30
0.0
 40
260.0
  1
41,9
  7
GOST
 72
1
 11
64400.0
 21
56300.0
 31
0.0
100
AcDbText
 73
2
  0
TEXT
  5
1C9
330
17
100
AcDbEntity
  8
TEXT
100
AcDbText
 10
53400.0
 20
55500.0
 30
0.0
 40
260.0
  1
1-02
  7
GOST
 72
1
 11
53400.0
 21
55500.0
 31
0.0
100
AcDbText
 73
2
  0
TEXT
  5
1CA
330
17
100
AcDbEntity
  8
TEXT
100
AcDbText
 10
54200.0
 20
55500.0
 30
0.0
 40
260.0
  1
Гардероб
  7
GOST
 11
54200.0
 21
55500.0
 31
0.0
100
AcDbText
 73
2
  0
TEXT
  5
1CB
330
17
100
AcDbEntity
  8
TEXT
100
AcDbText
 10
62300.0
 20
55500.0
 30
0.0
 40
260.0
  1
3,5×6,99
  7
GOST
 72
1
 11
62300.0
 21
55500.0
 31
0.0
100
AcDbText
 73
2
  0
TEXT
  5
1CC
330
17
100
AcDbEntity
  8
TEXT
100
AcDbText
 10
64400.0
 20
55500.0
 30
0.0
 40
260.0
  1
24,5
  7
GOST
 72
1
 11
64400.0
 21
55500.0
 31
0.0
100
AcDbText
 73
2
  0
TEXT
  5
1CD
330
17
100
AcDbEntity
  8
TEXT
100
AcDbText
 10
53400.0
 20
54700.0
 30
0.0
 40
260.0
  1
1-03
  7
GOST
 72
1
 11
53400.0
 21
54700.0
 31
0.0
100
AcDbText
 73
2
  0
TEXT
  5
1CE
330
17
100
AcDbEntity
  8
TEXT
100
AcDbText
 10
54200.0
 20
54700.0
 30
0.0
 40
260.0
  1
Душевые
  7
GOST
 11
54200.0
 21
54700.0
 31
0.0
100
AcDbText
 73
2
  0
TEXT
  5
1CF
330
17
100
AcDbEntity
  8
TEXT
100
AcDbText
 10
62300.0
 20
54700.0
 30
0.0
 40
260.0
  1
7×6,99
  7
GOST
 72
1
 11
62300.0
 21
54700.0
 31
0.0
100
AcDbText
 73
2
  0
TEXT
  5
1D0
330
17
100
AcDbEntity
  8
TEXT
100
AcDbText
 10
64400.0
 20
54700.0
 30
0.0
 40
260.0
  1
48,9
  7
GOST
 72
1
 11
64400.0
 21
54700.0
 31
0.0
100
AcDbText
 73
2
  0
TEXT
  5
1D1
330
17
100
AcDbEntity
  8
TEXT
100
AcDbText
 10
53400.0
 20
53900.0
 30
0.0
 40
260.0
  1
1-04
  7
GOST
 72
1
 11
53400.0
 21
53900.0
 31
0.0
100
AcDbText
 73
2
  0
TEXT
  5
1D2
330
17
100
AcDbEntity
  8
TEXT
100
AcDbText
 10
54200.0
 20
53900.0
 30
0.0
 40
260.0
  1
Умывальные
  7
GOST
 11
54200.0
 21
53900.0
 31
0.0
100
AcDbText
 73
2
  0
TEXT
  5
1D3
330
17
100
AcDbEntity
  8
TEXT
100
AcDbText
 10
62300.0
 20
53900.0
 30
0.0
 40
260.0
  1
4×6,99
  7
GOST
 72
1
 11
62300.0
 21
53900.0
 31
0.0
100
AcDbText
 73
2
  0
TEXT
  5
1D4
330
17
100
AcDbEntity
  8
TEXT
100
AcDbText
 10
64400.0
 20
53900.0
 30
0.0
 40
260.0
  1
28
  7
GOST
 72
1
 11
64400.0
 21
53900.0
 31
0.0
100
AcDbText
 73
2
  0
TEXT
  5
1D5
330
17
100
AcDbEntity
  8
TEXT
100
AcDbText
 10
53400.0
 20
53100.0
 30
0.0
 40
260.0
  1
1-05
  7
GOST
 72
1
 11
53400.0
 21
53100.0
 31
0.0
100
AcDbText
 73
2
  0
TEXT
  5
1D6
330
17
100
AcDbEntity
  8
TEXT
100
AcDbText
 10
54200.0
 20
53100.0
 30
0.0
 40
260.0
  1
Санузлы (общие)
  7
GOST
 11
54200.0
 21
53100.0
 31
0.0
100
AcDbText
 73
2
  0
TEXT
  5
1D7
330
17
100
AcDbEntity
  8
TEXT
100
AcDbText
 10
62300.0
 20
53100.0
 30
0.0
 40
260.0
  1
6×6,99
  7
GOST
 72
1
 11
62300.0
 21
53100.0
 31
0.0
100
AcDbText
 73
2
  0
TEXT
  5
1D8
330
17
100
AcDbEntity
  8
TEXT
100
AcDbText
 10
64400.0
 20
53100.0
 30
0.0
 40
260.0
  1
41,9
  7
GOST
 72
1
 11
64400.0
 21
53100.0
 31
0.0
100
AcDbText
 73
2
  0
TEXT
  5
1D9
330
17
100
AcDbEntity
  8
TEXT
100
AcDbText
 10
53400.0
 20
52300.0
 30
0.0
 40
260.0
  1
1-06
  7
GOST
 72
1
 11
53400.0
 21
52300.0
 31
0.0
100
AcDbText
 73
2
  0
TEXT
  5
1DA
330
17
100
AcDbEntity
  8
TEXT
100
AcDbText
 10
54200.0
 20
52300.0
 30
0.0
 40
260.0
  1
Кладовая инвентаря
  7
GOST
 11
54200.0
 21
52300.0
 31
0.0
100
AcDbText
 73
2
  0
TEXT
  5
1DB
330
17
100
AcDbEntity
  8
TEXT
100
AcDbText
 10
62300.0
 20
52300.0
 30
0.0
 40
260.0
  1
4,48×6,99
  7
GOST
 72
1
 11
62300.0
 21
52300.0
 31
0.0
100
AcDbText
 73
2
  0
TEXT
  5
1DC
330
17
100
AcDbEntity
  8
TEXT
100
AcDbText
 10
64400.0
 20
52300.0
 30
0.0
 40
260.0
  1
31,3
  7
GOST
 72
1
 11
64400.0
 21
52300.0
 31
0.0
100
AcDbText
 73
2
  0
TEXT
  5
1DD
330
17
100
AcDbEntity
  8
TEXT
100
AcDbText
 10
53400.0
 20
51500.0
 30
0.0
 40
260.0
  1
1-07
  7
GOST
 72
1
 11
53400.0
 21
51500.0
 31
0.0
100
AcDbText
 73
2
  0
TEXT
  5
1DE
330
17
100
AcDbEntity
  8
TEXT
100
AcDbText
 10
54200.0
 20
51500.0
 30
0.0
 40
260.0
  1
Электрощитовая
  7
GOST
 11
54200.0
 21
51500.0
 31
0.0
100
AcDbText
 73
2
  0
TEXT
  5
1DF
330
17
100
AcDbEntity
  8
TEXT
100
AcDbText
 10
62300.0
 20
51500.0
 30
0.0
 40
260.0
  1
4×6,99
  7
GOST
 72
1
 11
62300.0
 21
51500.0
 31
0.0
100
AcDbText
 73
2
  0
TEXT
  5
1E0
330
17
100
AcDbEntity
  8
TEXT
100
AcDbText
 10
64400.0
 20
51500.0
 30
0.0
 40
260.0
  1
28
  7
GOST
 72
1
 11
64400.0
 21
51500.0
 31
0.0
100
AcDbText
 73
2
  0
TEXT
  5
1E1
330
17
100
AcDbEntity
  8
TEXT
100
AcDbText
 10
53400.0
 20
50700.0
 30
0.0
 40
260.0
  1
1-08
  7
GOST
 72
1
 11
53400.0
 21
50700.0
 31
0.0
100
AcDbText
 73
2
  0
TEXT
  5
1E2
330
17
100
AcDbEntity
  8
TEXT
100
AcDbText
 10
54200.0
 20
50700.0
 30
0.0
 40
260.0
  1
Электрокотельная
  7
GOST
 11
54200.0
 21
50700.0
 31
0.0
100
AcDbText
 73
2
  0
TEXT
  5
1E3
330
17
100
AcDbEntity
  8
TEXT
100
AcDbText
 10
62300.0
 20
50700.0
 30
0.0
 40
260.0
  1
6,49×6,99
  7
GOST
 72
1
 11
62300.0
 21
50700.0
 31
0.0
100
AcDbText
 73
2
  0
TEXT
  5
1E4
330
17
100
AcDbEntity
  8
TEXT
100
AcDbText
 10
64400.0
 20
50700.0
 30
0.0
 40
260.0
  1
45,4
  7
GOST
 72
1
 11
64400.0
 21
50700.0
 31
0.0
100
AcDbText
 73
2
  0
TEXT
  5
1E5
330
17
100
AcDbEntity
  8
TEXT
100
AcDbText
 10
53400.0
 20
49900.0
 30
0.0
 40
260.0
  1
1-09
  7
GOST
 72
1
 11
53400.0
 21
49900.0
 31
0.0
100
AcDbText
 73
2
  0
TEXT
  5
1E6
330
17
100
AcDbEntity
  8
TEXT
100
AcDbText
 10
54200.0
 20
49900.0
 30
0.0
 40
260.0
  1
Комната персонала
  7
GOST
 11
54200.0
 21
49900.0
 31
0.0
100
AcDbText
 73
2
  0
TEXT
  5
1E7
330
17
100
AcDbEntity
  8
TEXT
100
AcDbText
 10
62300.0
 20
49900.0
 30
0.0
 40
260.0
  1
6×6,99
  7
GOST
 72
1
 11
62300.0
 21
49900.0
 31
0.0
100
AcDbText
 73
2
  0
TEXT
  5
1E8
330
17
100
AcDbEntity
  8
TEXT
100
AcDbText
 10
64400.0
 20
49900.0
 30
0.0
 40
260.0
  1
41,9
  7
GOST
 72
1
 11
64400.0
 21
49900.0
 31
0.0
100
AcDbText
 73
2
  0
TEXT
  5
1E9
330
17
100
AcDbEntity
  8
TEXT
100
AcDbText
 10
53400.0
 20
49100.0
 30
0.0
 40
260.0
  1
1-10
  7
GOST
 72
1
 11
53400.0
 21
49100.0
 31
0.0
100
AcDbText
 73
2
  0
TEXT
  5
1EA
330
17
100
AcDbEntity
  8
TEXT
100
AcDbText
 10
54200.0
 20
49100.0
 30
0.0
 40
260.0
  1
Комната отдыха персонала
  7
GOST
 11
54200.0
 21
49100.0
 31
0.0
100
AcDbText
 73
2
  0
TEXT
  5
1EB
330
17
100
AcDbEntity
  8
TEXT
100
AcDbText
 10
62300.0
 20
49100.0
 30
0.0
 40
260.0
  1
6×6,99
  7
GOST
 72
1
 11
62300.0
 21
49100.0
 31
0.0
100
AcDbText
 73
2
  0
TEXT
  5
1EC
330
17
100
AcDbEntity
  8
TEXT
100
AcDbText
 10
64400.0
 20
49100.0
 30
0.0
 40
260.0
  1
41,9
  7
GOST
 72
1
 11
64400.0
 21
49100.0
 31
0.0
100
AcDbText
 73
2
  0
TEXT
  5
1ED
330
17
100
AcDbEntity
  8
TEXT
100
AcDbText
 10
53400.0
 20
48300.0
 30
0.0
 40
260.0
  1
1-11
  7
GOST
 72
1
 11
53400.0
 21
48300.0
 31
0.0
100
AcDbText
 73
2
  0
TEXT
  5
1EE
330
17
100
AcDbEntity
  8
TEXT
100
AcDbText
 10
54200.0
 20
48300.0
 30
0.0
 40
260.0
  1
Кладовая чистого белья
  7
GOST
 11
54200.0
 21
48300.0
 31
0.0
100
AcDbText
 73
2
  0
TEXT
  5
1EF
330
17
100
AcDbEntity
  8
TEXT
100
AcDbText
 10
62300.0
 20
48300.0
 30
0.0
 40
260.0
  1
4×6,99
  7
GOST
 72
1
 11
62300.0
 21
48300.0
 31
0.0
100
AcDbText
 73
2
  0
TEXT
  5
1F0
330
17
100
AcDbEntity
  8
TEXT
100
AcDbText
 10
64400.0
 20
48300.0
 30
0.0
 40
260.0
  1
28
  7
GOST
 72
1
 11
64400.0
 21
48300.0
 31
0.0
100
AcDbText
 73
2
  0
TEXT
  5
1F1
330
17
100
AcDbEntity
  8
TEXT
100
AcDbText
 10
53400.0
 20
47500.0
 30
0.0
 40
260.0
  1
1-12
  7
GOST
 72
1
 11
53400.0
 21
47500.0
 31
0.0
100
AcDbText
 73
2
  0
TEXT
  5
1F2
330
17
100
AcDbEntity
  8
TEXT
100
AcDbText
 10
54200.0
 20
47500.0
 30
0.0
 40
260.0
  1
Кладовая грязного белья
  7
GOST
 11
54200.0
 21
47500.0
 31
0.0
100
AcDbText
 73
2
  0
TEXT
  5
1F3
330
17
100
AcDbEntity
  8
TEXT
100
AcDbText
 10
62300.0
 20
47500.0
 30
0.0
 40
260.0
  1
4×6,99
  7
GOST
 72
1
 11
62300.0
 21
47500.0
 31
0.0
100
AcDbText
 73
2
  0
TEXT
  5
1F4
330
17
100
AcDbEntity
  8
TEXT
100
AcDbText
 10
64400.0
 20
47500.0
 30
0.0
 40
260.0
  1
28
  7
GOST
 72
1
 11
64400.0
 21
47500.0
 31
0.0
100
AcDbText
 73
2
  0
TEXT
  5
1F5
330
17
100
AcDbEntity
  8
TEXT
100
AcDbText
 10
53400.0
 20
46700.0
 30
0.0
 40
260.0
  1
1-13
  7
GOST
 72
1
 11
53400.0
 21
46700.0
 31
0.0
100
AcDbText
 73
2
  0
TEXT
  5
1F6
330
17
100
AcDbEntity
  8
TEXT
100
AcDbText
 10
54200.0
 20
46700.0
 30
0.0
 40
260.0
  1
Санузел персонала
  7
GOST
 11
54200.0
 21
46700.0
 31
0.0
100
AcDbText
 73
2
  0
TEXT
  5
1F7
330
17
100
AcDbEntity
  8
TEXT
100
AcDbText
 10
62300.0
 20
46700.0
 30
0.0
 40
260.0
  1
4×6,99
  7
GOST
 72
1
 11
62300.0
 21
46700.0
 31
0.0
100
AcDbText
 73
2
  0
TEXT
  5
1F8
330
17
100
AcDbEntity
  8
TEXT
100
AcDbText
 10
64400.0
 20
46700.0
 30
0.0
 40
260.0
  1
28
  7
GOST
 72
1
 11
64400.0
 21
46700.0
 31
0.0
100
AcDbText
 73
2
  0
TEXT
  5
1F9
330
17
100
AcDbEntity
  8
TEXT
100
AcDbText
 10
53400.0
 20
45900.0
 30
0.0
 40
260.0
  1
1-14
  7
GOST
 72
1
 11
53400.0
 21
45900.0
 31
0.0
100
AcDbText
 73
2
  0
TEXT
  5
1FA
330
17
100
AcDbEntity
  8
TEXT
100
AcDbText
 10
54200.0
 20
45900.0
 30
0.0
 40
260.0
  1
Кладовая хозяйственная
  7
GOST
 11
54200.0
 21
45900.0
 31
0.0
100
AcDbText
 73
2
  0
TEXT
  5
1FB
330
17
100
AcDbEntity
  8
TEXT
100
AcDbText
 10
62300.0
 20
45900.0
 30
0.0
 40
260.0
  1
4,49×6,99
  7
GOST
 72
1
 11
62300.0
 21
45900.0
 31
0.0
100
AcDbText
 73
2
  0
TEXT
  5
1FC
330
17
100
AcDbEntity
  8
TEXT
100
AcDbText
 10
64400.0
 20
45900.0
 30
0.0
 40
260.0
  1
31,4
  7
GOST
 72
1
 11
64400.0
 21
45900.0
 31
0.0
100
AcDbText
 73
2
  0
TEXT
  5
1FD
330
17
100
AcDbEntity
  8
TEXT
100
AcDbText
 10
53400.0
 20
45100.0
 30
0.0
 40
260.0
  1
1-15
  7
GOST
 72
1
 11
53400.0
 21
45100.0
 31
0.0
100
AcDbText
 73
2
  0
TEXT
  5
1FE
330
17
100
AcDbEntity
  8
TEXT
100
AcDbText
 10
54200.0
 20
45100.0
 30
0.0
 40
260.0
  1
Коридор, лестничная клетка
  7
GOST
 11
54200.0
 21
45100.0
 31
0.0
100
AcDbText
 73
2
  0
TEXT
  5
1FF
330
17
100
AcDbEntity
  8
TEXT
100
AcDbText
 10
62300.0
 20
45100.0
 30
0.0
 40
260.0
  1
34,98×3
  7
GOST
 72
1
 11
62300.0
 21
45100.0
 31
0.0
100
AcDbText
 73
2
  0
TEXT
  5
200
330
17
100
AcDbEntity
  8
TEXT
100
AcDbText
 10
64400.0
 20
45100.0
 30
0.0
 40
260.0
  1
104,9
  7
GOST
 72
1
 11
64400.0
 21
45100.0
 31
0.0
100
AcDbText
 73
2
  0
TEXT
  5
201
330
17
100
AcDbEntity
  8
TEXT
100
AcDbText
 10
59000.0
 20
39100.0
 30
0.0
 40
400.0
  1
Условные обозначения
  7
GOST
 72
1
 11
59000.0
 21
39100.0
 31
0.0
100
AcDbText
 73
2
  0
LWPOLYLINE
  5
202
330
17
100
AcDbEntity
  8
RAMKA
100
AcDbPolyline
 90
5
 70
0
 10
53000.0
 20
30400.0
 10
65000.0
 20
30400.0
 10
65000.0
 20
38100.0
 10
53000.0
 20
38100.0
 10
53000.0
 20
30400.0
  0
LWPOLYLINE
  5
203
330
17
100
AcDbEntity
  8
OTOP
100
AcDbPolyline
 90
5
 70
0
 10
53500.0
 20
37390.0
 10
55300.0
 20
37390.0
 10
55300.0
 20
37710.0
 10
53500.0
 20
37710.0
 10
53500.0
 20
37390.0
  0
TEXT
  5
204
330
17
100
AcDbEntity
  8
TEXT
100
AcDbText
 10
56000.0
 20
37550.0
 30
0.0
 40
260.0
  1
Регистр из стальных труб Ø108×4, Р-1…Р-5
  7
GOST
 11
56000.0
 21
37550.0
 31
0.0
100
AcDbText
 73
2
  0
LINE
  5
205
330
17
100
AcDbEntity
  8
OTOP
100
AcDbLine
 10
53500.0
 20
36450.0
 30
0.0
 11
55300.0
 21
36450.0
 31
0.0
  0
TEXT
  5
206
330
17
100
AcDbEntity
  8
TEXT
100
AcDbText
 10
56000.0
 20
36450.0
 30
0.0
 40
260.0
  1
Т1 — магистраль подающая
  7
GOST
 11
56000.0
 21
36450.0
 31
0.0
100
AcDbText
 73
2
  0
LINE
  5
207
330
17
100
AcDbEntity
  8
OTOP
100
AcDbLine
 10
53500.0
 20
35350.0
 30
0.0
 11
53800.0
 21
35350.0
 31
0.0
  0
LINE
  5
208
330
17
100
AcDbEntity
  8
OTOP
100
AcDbLine
 10
53950.0
 20
35350.0
 30
0.0
 11
54250.0
 21
35350.0
 31
0.0
  0
LINE
  5
209
330
17
100
AcDbEntity
  8
OTOP
100
AcDbLine
 10
54400.0
 20
35350.0
 30
0.0
 11
54700.0
 21
35350.0
 31
0.0
  0
LINE
  5
20A
330
17
100
AcDbEntity
  8
OTOP
100
AcDbLine
 10
54850.0
 20
35350.0
 30
0.0
 11
55150.0
 21
35350.0
 31
0.0
  0
TEXT
  5
20B
330
17
100
AcDbEntity
  8
TEXT
100
AcDbText
 10
56000.0
 20
35350.0
 30
0.0
 40
260.0
  1
Т2 — магистраль обратная
  7
GOST
 11
56000.0
 21
35350.0
 31
0.0
100
AcDbText
 73
2
  0
LINE
  5
20C
330
17
100
AcDbEntity
  8
OTOP
100
AcDbLine
 10
53500.0
 20
34250.0
 30
0.0
 11
55300.0
 21
34250.0
 31
0.0
  0
CIRCLE
  5
20D
330
17
100
AcDbEntity
  8
OTOP
100
AcDbCircle
 10
54400.0
 20
34250.0
 30
0.0
 40
160.0
  0
TEXT
  5
20E
330
17
100
AcDbEntity
  8
TEXT
100
AcDbText
 10
56000.0
 20
34250.0
 30
0.0
 40
260.0
  1
Стояк, подводка к прибору
  7
GOST
 11
56000.0
 21
34250.0
 31
0.0
100
AcDbText
 73
2
  0
LWPOLYLINE
  5
20F
330
17
100
AcDbEntity
  8
OTOP
100
AcDbPolyline
 90
5
 70
0
 10
53800.0
 20
32850.0
 10
55000.0
 20
32850.0
 10
55000.0
 20
33450.0
 10
53800.0
 20
33450.0
 10
53800.0
 20
32850.0
  0
TEXT
  5
210
330
17
100
AcDbEntity
  8
TEXT
100
AcDbText
 10
56000.0
 20
33150.0
 30
0.0
 40
260.0
  1
Электрокотёл ZOTA Solid-X 72
  7
GOST
 11
56000.0
 21
33150.0
 31
0.0
100
AcDbText
 73
2
  0
CIRCLE
  5
211
330
17
100
AcDbEntity
  8
OTOP
100
AcDbCircle
 10
54400.0
 20
32050.0
 30
0.0
 40
300.0
  0
LINE
  5
212
330
17
100
AcDbEntity
  8
OTOP
100
AcDbLine
 10
54400.0
 20
32350.0
 30
0.0
 11
54800.0
 21
32350.0
 31
0.0
  0
TEXT
  5
213
330
17
100
AcDbEntity
  8
TEXT
100
AcDbText
 10
56000.0
 20
32050.0
 30
0.0
 40
260.0
  1
Насос Grundfos UPS 25-60
  7
GOST
 11
56000.0
 21
32050.0
 31
0.0
100
AcDbText
 73
2
  0
LWPOLYLINE
  5
214
330
17
100
AcDbEntity
  8
OTOP
100
AcDbPolyline
 90
5
 70
0
 10
54100.0
 20
30550.0
 10
54700.0
 20
30550.0
 10
54700.0
 20
31350.0
 10
54100.0
 20
31350.0
 10
54100.0
 20
30550.0
  0
TEXT
  5
215
330
17
100
AcDbEntity
  8
TEXT
100
AcDbText
 10
56000.0
 20
30950.0
 30
0.0
 40
260.0
  1
Бак расширительный Reflex N 500
  7
GOST
 11
56000.0
 21
30950.0
 31
0.0
100
AcDbText
 73
2
  0
TEXT
  5
216
330
17
100
AcDbEntity
  8
TEXT
100
AcDbText
 10
36400.0
 20
21600.0
 30
0.0
 40
400.0
  1
Примечания
  7
GOST
 11
36400.0
 21
21600.0
 31
0.0
100
AcDbText
 73
2
  0
TEXT
  5
217
330
17
100
AcDbEntity
  8
TEXT
100
AcDbText
 10
36400.0
 20
20800.0
 30
0.0
 40
260.0
  1
1. Система отопления двухтрубная с верхней разводкой.
  7
GOST
 11
36400.0
 21
20800.0
 31
0.0
100
AcDbText
 73
2
  0
TEXT
  5
218
330
17
100
AcDbEntity
  8
TEXT
100
AcDbText
 10
36400.0
 20
20200.0
 30
0.0
 40
260.0
  1
2. Теплоноситель — вода 95–70 °C; t_ср = 82,5 °C.
  7
GOST
 11
36400.0
 21
20200.0
 31
0.0
100
AcDbText
 73
2
  0
TEXT
  5
219
330
17
100
AcDbEntity
  8
TEXT
100
AcDbText
 10
36400.0
 20
19600.0
 30
0.0
 40
260.0
  1
3. Отопительные приборы — регистры из стальных труб
  7
GOST
 11
36400.0
 21
19600.0
 31
0.0
100
AcDbText
 73
2
  0
TEXT
  5
21A
330
17
100
AcDbEntity
  8
TEXT
100
AcDbText
 10
36400.0
 20
19000.0
 30
0.0
 40
260.0
  1
    Ø108×4 (ГОСТ 10704); окраска масляной краской в 2 слоя.
  7
GOST
 11
36400.0
 21
19000.0
 31
0.0
100
AcDbText
 73
2
  0
TEXT
  5
21B
330
17
100
AcDbEntity
  8
TEXT
100
AcDbText
 10
36400.0
 20
18400.0
 30
0.0
 40
260.0
  1
4. Источник теплоты — электрокотёл ZOTA Solid-X 72 (72 кВт),
  7
GOST
 11
36400.0
 21
18400.0
 31
0.0
100
AcDbText
 73
2
  0
TEXT
  5
21C
330
17
100
AcDbEntity
  8
TEXT
100
AcDbText
 10
36400.0
 20
17800.0
 30
0.0
 40
260.0
  1
    помещение электрокотельной 1-08.
  7
GOST
 11
36400.0
 21
17800.0
 31
0.0
100
AcDbText
 73
2
  0
TEXT
  5
21D
330
17
100
AcDbEntity
  8
TEXT
100
AcDbText
 10
36400.0
 20
17200.0
 30
0.0
 40
260.0
  1
5. Размеры на чертеже — в мм, отметки — в м.
  7
GOST
 11
36400.0
 21
17200.0
 31
0.0
100
AcDbText
 73
2
  0
LWPOLYLINE
  5
21E
330
17
100
AcDbEntity
  8
RAMKA
100
AcDbPolyline
 90
5
 70
0
 10
65100.0
 20
500.0
 10
83600.0
 20
500.0
 10
83600.0
 20
6000.0
 10
65100.0
 20
6000.0
 10
65100.0
 20
500.0
  0
LWPOLYLINE
  5
21F
330
17
100
AcDbEntity
  8
RAMKA
100
AcDbPolyline
 90
5
 70
0
 10
65100.0
 20
3500.0
 10
65800.0
 20
3500.0
 10
65800.0
 20
4000.0
 10
65100.0
 20
4000.0
 10
65100.0
 20
3500.0
  0
TEXT
  5
220
330
17
100
AcDbEntity
  8
RAMKA
100
AcDbText
 10
65450.0
 20
3750.0
 30
0.0
 40
160.0
  1
Изм.
  7
GOST
 72
1
 11
65450.0
 21
3750.0
 31
0.0
100
AcDbText
 73
2
  0
LWPOLYLINE
  5
221
330
17
100
AcDbEntity
  8
RAMKA
100
AcDbPolyline
 90
5
 70
0
 10
65800.0
 20
3500.0
 10
66900.0
 20
3500.0
 10
66900.0
 20
4000.0
 10
65800.0
 20
4000.0
 10
65800.0
 20
3500.0
  0
TEXT
  5
222
330
17
100
AcDbEntity
  8
RAMKA
100
AcDbText
 10
66350.0
 20
3750.0
 30
0.0
 40
160.0
  1
Лист
  7
GOST
 72
1
 11
66350.0
 21
3750.0
 31
0.0
100
AcDbText
 73
2
  0
LWPOLYLINE
  5
223
330
17
100
AcDbEntity
  8
RAMKA
100
AcDbPolyline
 90
5
 70
0
 10
66900.0
 20
3500.0
 10
69100.0
 20
3500.0
 10
69100.0
 20
4000.0
 10
66900.0
 20
4000.0
 10
66900.0
 20
3500.0
  0
TEXT
  5
224
330
17
100
AcDbEntity
  8
RAMKA
100
AcDbText
 10
68000.0
 20
3750.0
 30
0.0
 40
160.0
  1
№ докум.
  7
GOST
 72
1
 11
68000.0
 21
3750.0
 31
0.0
100
AcDbText
 73
2
  0
LWPOLYLINE
  5
225
330
17
100
AcDbEntity
  8
RAMKA
100
AcDbPolyline
 90
5
 70
0
 10
69100.0
 20
3500.0
 10
70300.0
 20
3500.0
 10
70300.0
 20
4000.0
 10
69100.0
 20
4000.0
 10
69100.0
 20
3500.0
  0
TEXT
  5
226
330
17
100
AcDbEntity
  8
RAMKA
100
AcDbText
 10
69700.0
 20
3750.0
 30
0.0
 40
160.0
  1
Подп.
  7
GOST
 72
1
 11
69700.0
 21
3750.0
 31
0.0
100
AcDbText
 73
2
  0
LWPOLYLINE
  5
227
330
17
100
AcDbEntity
  8
RAMKA
100
AcDbPolyline
 90
5
 70
0
 10
70300.0
 20
3500.0
 10
71600.0
 20
3500.0
 10
71600.0
 20
4000.0
 10
70300.0
 20
4000.0
 10
70300.0
 20
3500.0
  0
TEXT
  5
228
330
17
100
AcDbEntity
  8
RAMKA
100
AcDbText
 10
70950.0
 20
3750.0
 30
0.0
 40
160.0
  1
Дата
  7
GOST
 72
1
 11
70950.0
 21
3750.0
 31
0.0
100
AcDbText
 73
2
  0
LWPOLYLINE
  5
229
330
17
100
AcDbEntity
  8
RAMKA
100
AcDbPolyline
 90
5
 70
0
 10
65100.0
 20
3000.0
 10
66900.0
 20
3000.0
 10
66900.0
 20
3500.0
 10
65100.0
 20
3500.0
 10
65100.0
 20
3000.0
  0
TEXT
  5
22A
330
17
100
AcDbEntity
  8
RAMKA
100
AcDbText
 10
65250.0
 20
3250.0
 30
0.0
 40
200.0
  1
Разраб.
  7
GOST
 11
65250.0
 21
3250.0
 31
0.0
100
AcDbText
 73
2
  0
LWPOLYLINE
  5
22B
330
17
100
AcDbEntity
  8
RAMKA
100
AcDbPolyline
 90
5
 70
0
 10
66900.0
 20
3000.0
 10
69100.0
 20
3000.0
 10
69100.0
 20
3500.0
 10
66900.0
 20
3500.0
 10
66900.0
 20
3000.0
  0
TEXT
  5
22C
330
17
100
AcDbEntity
  8
RAMKA
100
AcDbText
 10
68000.0
 20
3250.0
 30
0.0
 40
200.0
  1
Лукашин А. О.
  7
GOST
 72
1
 11
68000.0
 21
3250.0
 31
0.0
100
AcDbText
 73
2
  0
LWPOLYLINE
  5
22D
330
17
100
AcDbEntity
  8
RAMKA
100
AcDbPolyline
 90
5
 70
0
 10
69100.0
 20
3000.0
 10
70300.0
 20
3000.0
 10
70300.0
 20
3500.0
 10
69100.0
 20
3500.0
 10
69100.0
 20
3000.0
  0
LWPOLYLINE
  5
22E
330
17
100
AcDbEntity
  8
RAMKA
100
AcDbPolyline
 90
5
 70
0
 10
70300.0
 20
3000.0
 10
71600.0
 20
3000.0
 10
71600.0
 20
3500.0
 10
70300.0
 20
3500.0
 10
70300.0
 20
3000.0
  0
LWPOLYLINE
  5
22F
330
17
100
AcDbEntity
  8
RAMKA
100
AcDbPolyline
 90
5
 70
0
 10
65100.0
 20
2500.0
 10
66900.0
 20
2500.0
 10
66900.0
 20
3000.0
 10
65100.0
 20
3000.0
 10
65100.0
 20
2500.0
  0
TEXT
  5
230
330
17
100
AcDbEntity
  8
RAMKA
100
AcDbText
 10
65250.0
 20
2750.0
 30
0.0
 40
200.0
  1
Руковод.
  7
GOST
 11
65250.0
 21
2750.0
 31
0.0
100
AcDbText
 73
2
  0
LWPOLYLINE
  5
231
330
17
100
AcDbEntity
  8
RAMKA
100
AcDbPolyline
 90
5
 70
0
 10
66900.0
 20
2500.0
 10
69100.0
 20
2500.0
 10
69100.0
 20
3000.0
 10
66900.0
 20
3000.0
 10
66900.0
 20
2500.0
  0
TEXT
  5
232
330
17
100
AcDbEntity
  8
RAMKA
100
AcDbText
 10
68000.0
 20
2750.0
 30
0.0
 40
200.0
  1
Полулях Г.Л.
  7
GOST
 72
1
 11
68000.0
 21
2750.0
 31
0.0
100
AcDbText
 73
2
  0
LWPOLYLINE
  5
233
330
17
100
AcDbEntity
  8
RAMKA
100
AcDbPolyline
 90
5
 70
0
 10
69100.0
 20
2500.0
 10
70300.0
 20
2500.0
 10
70300.0
 20
3000.0
 10
69100.0
 20
3000.0
 10
69100.0
 20
2500.0
  0
LWPOLYLINE
  5
234
330
17
100
AcDbEntity
  8
RAMKA
100
AcDbPolyline
 90
5
 70
0
 10
70300.0
 20
2500.0
 10
71600.0
 20
2500.0
 10
71600.0
 20
3000.0
 10
70300.0
 20
3000.0
 10
70300.0
 20
2500.0
  0
LWPOLYLINE
  5
235
330
17
100
AcDbEntity
  8
RAMKA
100
AcDbPolyline
 90
5
 70
0
 10
65100.0
 20
2000.0
 10
66900.0
 20
2000.0
 10
66900.0
 20
2500.0
 10
65100.0
 20
2500.0
 10
65100.0
 20
2000.0
  0
TEXT
  5
236
330
17
100
AcDbEntity
  8
RAMKA
100
AcDbText
 10
65250.0
 20
2250.0
 30
0.0
 40
200.0
  1
Н. контр.
  7
GOST
 11
65250.0
 21
2250.0
 31
0.0
100
AcDbText
 73
2
  0
LWPOLYLINE
  5
237
330
17
100
AcDbEntity
  8
RAMKA
100
AcDbPolyline
 90
5
 70
0
 10
66900.0
 20
2000.0
 10
69100.0
 20
2000.0
 10
69100.0
 20
2500.0
 10
66900.0
 20
2500.0
 10
66900.0
 20
2000.0
  0
TEXT
  5
238
330
17
100
AcDbEntity
  8
RAMKA
100
AcDbText
 10
68000.0
 20
2250.0
 30
0.0
 40
200.0
  1
—
  7
GOST
 72
1
 11
68000.0
 21
2250.0
 31
0.0
100
AcDbText
 73
2
  0
LWPOLYLINE
  5
239
330
17
100
AcDbEntity
  8
RAMKA
100
AcDbPolyline
 90
5
 70
0
 10
69100.0
 20
2000.0
 10
70300.0
 20
2000.0
 10
70300.0
 20
2500.0
 10
69100.0
 20
2500.0
 10
69100.0
 20
2000.0
  0
LWPOLYLINE
  5
23A
330
17
100
AcDbEntity
  8
RAMKA
100
AcDbPolyline
 90
5
 70
0
 10
70300.0
 20
2000.0
 10
71600.0
 20
2000.0
 10
71600.0
 20
2500.0
 10
70300.0
 20
2500.0
 10
70300.0
 20
2000.0
  0
LWPOLYLINE
  5
23B
330
17
100
AcDbEntity
  8
RAMKA
100
AcDbPolyline
 90
5
 70
0
 10
65100.0
 20
1500.0
 10
66900.0
 20
1500.0
 10
66900.0
 20
2000.0
 10
65100.0
 20
2000.0
 10
65100.0
 20
1500.0
  0
TEXT
  5
23C
330
17
100
AcDbEntity
  8
RAMKA
100
AcDbText
 10
65250.0
 20
1750.0
 30
0.0
 40
200.0
  1
Утв.
  7
GOST
 11
65250.0
 21
1750.0
 31
0.0
100
AcDbText
 73
2
  0
LWPOLYLINE
  5
23D
330
17
100
AcDbEntity
  8
RAMKA
100
AcDbPolyline
 90
5
 70
0
 10
66900.0
 20
1500.0
 10
69100.0
 20
1500.0
 10
69100.0
 20
2000.0
 10
66900.0
 20
2000.0
 10
66900.0
 20
1500.0
  0
TEXT
  5
23E
330
17
100
AcDbEntity
  8
RAMKA
100
AcDbText
 10
68000.0
 20
1750.0
 30
0.0
 40
200.0
  1
Шарапов Р.В.
  7
GOST
 72
1
 11
68000.0
 21
1750.0
 31
0.0
100
AcDbText
 73
2
  0
LWPOLYLINE
  5
23F
330
17
100
AcDbEntity
  8
RAMKA
100
AcDbPolyline
 90
5
 70
0
 10
69100.0
 20
1500.0
 10
70300.0
 20
1500.0
 10
70300.0
 20
2000.0
 10
69100.0
 20
2000.0
 10
69100.0
 20
1500.0
  0
LWPOLYLINE
  5
240
330
17
100
AcDbEntity
  8
RAMKA
100
AcDbPolyline
 90
5
 70
0
 10
70300.0
 20
1500.0
 10
71600.0
 20
1500.0
 10
71600.0
 20
2000.0
 10
70300.0
 20
2000.0
 10
70300.0
 20
1500.0
  0
LWPOLYLINE
  5
241
330
17
100
AcDbEntity
  8
RAMKA
100
AcDbPolyline
 90
5
 70
0
 10
65100.0
 20
500.0
 10
65800.0
 20
500.0
 10
65800.0
 20
1000.0
 10
65100.0
 20
1000.0
 10
65100.0
 20
500.0
  0
LWPOLYLINE
  5
242
330
17
100
AcDbEntity
  8
RAMKA
100
AcDbPolyline
 90
5
 70
0
 10
65800.0
 20
500.0
 10
66900.0
 20
500.0
 10
66900.0
 20
1000.0
 10
65800.0
 20
1000.0
 10
65800.0
 20
500.0
  0
LWPOLYLINE
  5
243
330
17
100
AcDbEntity
  8
RAMKA
100
AcDbPolyline
 90
5
 70
0
 10
66900.0
 20
500.0
 10
69100.0
 20
500.0
 10
69100.0
 20
1000.0
 10
66900.0
 20
1000.0
 10
66900.0
 20
500.0
  0
LWPOLYLINE
  5
244
330
17
100
AcDbEntity
  8
RAMKA
100
AcDbPolyline
 90
5
 70
0
 10
69100.0
 20
500.0
 10
70300.0
 20
500.0
 10
70300.0
 20
1000.0
 10
69100.0
 20
1000.0
 10
69100.0
 20
500.0
  0
LWPOLYLINE
  5
245
330
17
100
AcDbEntity
  8
RAMKA
100
AcDbPolyline
 90
5
 70
0
 10
70300.0
 20
500.0
 10
71600.0
 20
500.0
 10
71600.0
 20
1000.0
 10
70300.0
 20
1000.0
 10
70300.0
 20
500.0
  0
LWPOLYLINE
  5
246
330
17
100
AcDbEntity
  8
RAMKA
100
AcDbPolyline
 90
5
 70
0
 10
65100.0
 20
1000.0
 10
65800.0
 20
1000.0
 10
65800.0
 20
1500.0
 10
65100.0
 20
1500.0
 10
65100.0
 20
1000.0
  0
LWPOLYLINE
  5
247
330
17
100
AcDbEntity
  8
RAMKA
100
AcDbPolyline
 90
5
 70
0
 10
65800.0
 20
1000.0
 10
66900.0
 20
1000.0
 10
66900.0
 20
1500.0
 10
65800.0
 20
1500.0
 10
65800.0
 20
1000.0
  0
LWPOLYLINE
  5
248
330
17
100
AcDbEntity
  8
RAMKA
100
AcDbPolyline
 90
5
 70
0
 10
66900.0
 20
1000.0
 10
69100.0
 20
1000.0
 10
69100.0
 20
1500.0
 10
66900.0
 20
1500.0
 10
66900.0
 20
1000.0
  0
LWPOLYLINE
  5
249
330
17
100
AcDbEntity
  8
RAMKA
100
AcDbPolyline
 90
5
 70
0
 10
69100.0
 20
1000.0
 10
70300.0
 20
1000.0
 10
70300.0
 20
1500.0
 10
69100.0
 20
1500.0
 10
69100.0
 20
1000.0
  0
LWPOLYLINE
  5
24A
330
17
100
AcDbEntity
  8
RAMKA
100
AcDbPolyline
 90
5
 70
0
 10
70300.0
 20
1000.0
 10
71600.0
 20
1000.0
 10
71600.0
 20
1500.0
 10
70300.0
 20
1500.0
 10
70300.0
 20
1000.0
  0
LWPOLYLINE
  5
24B
330
17
100
AcDbEntity
  8
RAMKA
100
AcDbPolyline
 90
5
 70
0
 10
65100.0
 20
4000.0
 10
77100.0
 20
4000.0
 10
77100.0
 20
6000.0
 10
65100.0
 20
6000.0
 10
65100.0
 20
4000.0
  0
TEXT
  5
24C
330
17
100
AcDbEntity
  8
RAMKA
100
AcDbText
 10
71100.0
 20
5600.0
 30
0.0
 40
260.0
  1
Бытовой корпус базы отдыха «Дубрава»
  7
GOST
 72
1
 11
71100.0
 21
5600.0
 31
0.0
100
AcDbText
 73
2
  0
TEXT
  5
24D
330
17
100
AcDbEntity
  8
RAMKA
100
AcDbText
 10
71100.0
 20
5050.0
 30
0.0
 40
260.0
  1
Система отопления.
  7
GOST
 72
1
 11
71100.0
 21
5050.0
 31
0.0
100
AcDbText
 73
2
  0
TEXT
  5
24E
330
17
100
AcDbEntity
  8
RAMKA
100
AcDbText
 10
71100.0
 20
4500.0
 30
0.0
 40
260.0
  1
План 1-го этажа
  7
GOST
 72
1
 11
71100.0
 21
4500.0
 31
0.0
100
AcDbText
 73
2
  0
LWPOLYLINE
  5
24F
330
17
100
AcDbEntity
  8
RAMKA
100
AcDbPolyline
 90
5
 70
0
 10
71600.0
 20
2300.0
 10
77100.0
 20
2300.0
 10
77100.0
 20
4000.0
 10
71600.0
 20
4000.0
 10
71600.0
 20
2300.0
  0
TEXT
  5
250
330
17
100
AcDbEntity
  8
RAMKA
100
AcDbText
 10
74350.0
 20
3150.0
 30
0.0
 40
450.0
  1
М 1:100
  7
GOST
 72
1
 11
74350.0
 21
3150.0
 31
0.0
100
AcDbText
 73
2
  0
LWPOLYLINE
  5
251
330
17
100
AcDbEntity
  8
RAMKA
100
AcDbPolyline
 90
5
 70
0
 10
71600.0
 20
1400.0
 10
77100.0
 20
1400.0
 10
77100.0
 20
2300.0
 10
71600.0
 20
2300.0
 10
71600.0
 20
1400.0
  0
TEXT
  5
252
330
17
100
AcDbEntity
  8
RAMKA
100
AcDbText
 10
74350.0
 20
1850.0
 30
0.0
 40
240.0
  1
Стадия — ВКР
  7
GOST
 72
1
 11
74350.0
 21
1850.0
 31
0.0
100
AcDbText
 73
2
  0
LWPOLYLINE
  5
253
330
17
100
AcDbEntity
  8
RAMKA
100
AcDbPolyline
 90
5
 70
0
 10
71600.0
 20
500.0
 10
77100.0
 20
500.0
 10
77100.0
 20
1400.0
 10
71600.0
 20
1400.0
 10
71600.0
 20
500.0
  0
TEXT
  5
254
330
17
100
AcDbEntity
  8
RAMKA
100
AcDbText
 10
74350.0
 20
950.0
 30
0.0
 40
260.0
  1
2026 г.
  7
GOST
 72
1
 11
74350.0
 21
950.0
 31
0.0
100
AcDbText
 73
2
  0
LWPOLYLINE
  5
255
330
17
100
AcDbEntity
  8
RAMKA
100
AcDbPolyline
 90
5
 70
0
 10
77100.0
 20
4800.0
 10
83600.0
 20
4800.0
 10
83600.0
 20
6000.0
 10
77100.0
 20
6000.0
 10
77100.0
 20
4800.0
  0
TEXT
  5
256
330
17
100
AcDbEntity
  8
RAMKA
100
AcDbText
 10
80350.0
 20
5400.0
 30
0.0
 40
300.0
  1
МИВУ.080301.018-ОВ
  7
GOST
 72
1
 11
80350.0
 21
5400.0
 31
0.0
100
AcDbText
 73
2
  0
LWPOLYLINE
  5
257
330
17
100
AcDbEntity
  8
RAMKA
100
AcDbPolyline
 90
5
 70
0
 10
77100.0
 20
4300.0
 10
79100.0
 20
4300.0
 10
79100.0
 20
4800.0
 10
77100.0
 20
4800.0
 10
77100.0
 20
4300.0
  0
TEXT
  5
258
330
17
100
AcDbEntity
  8
RAMKA
100
AcDbText
 10
78100.0
 20
4550.0
 30
0.0
 40
180.0
  1
Стадия
  7
GOST
 72
1
 11
78100.0
 21
4550.0
 31
0.0
100
AcDbText
 73
2
  0
LWPOLYLINE
  5
259
330
17
100
AcDbEntity
  8
RAMKA
100
AcDbPolyline
 90
5
 70
0
 10
79100.0
 20
4300.0
 10
81300.0
 20
4300.0
 10
81300.0
 20
4800.0
 10
79100.0
 20
4800.0
 10
79100.0
 20
4300.0
  0
TEXT
  5
25A
330
17
100
AcDbEntity
  8
RAMKA
100
AcDbText
 10
80200.0
 20
4550.0
 30
0.0
 40
180.0
  1
Лист
  7
GOST
 72
1
 11
80200.0
 21
4550.0
 31
0.0
100
AcDbText
 73
2
  0
LWPOLYLINE
  5
25B
330
17
100
AcDbEntity
  8
RAMKA
100
AcDbPolyline
 90
5
 70
0
 10
81300.0
 20
4300.0
 10
83600.0
 20
4300.0
 10
83600.0
 20
4800.0
 10
81300.0
 20
4800.0
 10
81300.0
 20
4300.0
  0
TEXT
  5
25C
330
17
100
AcDbEntity
  8
RAMKA
100
AcDbText
 10
82450.0
 20
4550.0
 30
0.0
 40
180.0
  1
Листов
  7
GOST
 72
1
 11
82450.0
 21
4550.0
 31
0.0
100
AcDbText
 73
2
  0
LWPOLYLINE
  5
25D
330
17
100
AcDbEntity
  8
RAMKA
100
AcDbPolyline
 90
5
 70
0
 10
77100.0
 20
3500.0
 10
79100.0
 20
3500.0
 10
79100.0
 20
4300.0
 10
77100.0
 20
4300.0
 10
77100.0
 20
3500.0
  0
TEXT
  5
25E
330
17
100
AcDbEntity
  8
RAMKA
100
AcDbText
 10
78100.0
 20
3900.0
 30
0.0
 40
280.0
  1
ВКР
  7
GOST
 72
1
 11
78100.0
 21
3900.0
 31
0.0
100
AcDbText
 73
2
  0
LWPOLYLINE
  5
25F
330
17
100
AcDbEntity
  8
RAMKA
100
AcDbPolyline
 90
5
 70
0
 10
79100.0
 20
3500.0
 10
81300.0
 20
3500.0
 10
81300.0
 20
4300.0
 10
79100.0
 20
4300.0
 10
79100.0
 20
3500.0
  0
TEXT
  5
260
330
17
100
AcDbEntity
  8
RAMKA
100
AcDbText
 10
80200.0
 20
3900.0
 30
0.0
 40
280.0
  1
1
  7
GOST
 72
1
 11
80200.0
 21
3900.0
 31
0.0
100
AcDbText
 73
2
  0
LWPOLYLINE
  5
261
330
17
100
AcDbEntity
  8
RAMKA
100
AcDbPolyline
 90
5
 70
0
 10
81300.0
 20
3500.0
 10
83600.0
 20
3500.0
 10
83600.0
 20
4300.0
 10
81300.0
 20
4300.0
 10
81300.0
 20
3500.0
  0
TEXT
  5
262
330
17
100
AcDbEntity
  8
RAMKA
100
AcDbText
 10
82450.0
 20
3900.0
 30
0.0
 40
280.0
  1
6
  7
GOST
 72
1
 11
82450.0
 21
3900.0
 31
0.0
100
AcDbText
 73
2
  0
LWPOLYLINE
  5
263
330
17
100
AcDbEntity
  8
RAMKA
100
AcDbPolyline
 90
5
 70
0
 10
77100.0
 20
500.0
 10
83600.0
 20
500.0
 10
83600.0
 20
3500.0
 10
77100.0
 20
3500.0
 10
77100.0
 20
500.0
  0
TEXT
  5
264
330
17
100
AcDbEntity
  8
RAMKA
100
AcDbText
 10
80350.0
 20
2800.0
 30
0.0
 40
240.0
  1
Муромский институт
  7
GOST
 72
1
 11
80350.0
 21
2800.0
 31
0.0
100
AcDbText
 73
2
  0
TEXT
  5
265
330
17
100
AcDbEntity
  8
RAMKA
100
AcDbText
 10
80350.0
 20
2200.0
 30
0.0
 40
240.0
  1
(филиал) ВлГУ
  7
GOST
 72
1
 11
80350.0
 21
2200.0
 31
0.0
100
AcDbText
 73
2
  0
TEXT
  5
266
330
17
100
AcDbEntity
  8
RAMKA
100
AcDbText
 10
80350.0
 20
1600.0
 30
0.0
 40
240.0
  1
кафедра ТБ
  7
GOST
 72
1
 11
80350.0
 21
1600.0
 31
0.0
100
AcDbText
 73
2
  0
ENDSEC
  0
SECTION
  2
OBJECTS
  0
DICTIONARY
  5
A
330
0
100
AcDbDictionary
281
1
  3
ACAD_COLOR
350
B
  3
ACAD_GROUP
350
C
  3
ACAD_LAYOUT
350
D
  3
ACAD_MATERIAL
350
E
  3
ACAD_MLEADERSTYLE
350
F
  3
ACAD_MLINESTYLE
350
10
  3
ACAD_PLOTSETTINGS
350
11
  3
ACAD_PLOTSTYLENAME
350
12
  3
ACAD_SCALELIST
350
14
  3
ACAD_TABLESTYLE
350
15
  3
ACAD_VISUALSTYLE
350
16
  3
EZDXF_META
350
2D
  0
DICTIONARY
  5
B
330
A
100
AcDbDictionary
281
1
  0
DICTIONARY
  5
C
330
A
100
AcDbDictionary
281
1
  0
DICTIONARY
  5
D
330
A
100
AcDbDictionary
281
1
  3
Model
350
1A
  3
Layout1
350
1E
  0
DICTIONARY
  5
E
330
A
100
AcDbDictionary
281
1
  3
ByBlock
350
1F
  3
ByLayer
350
20
  3
Global
350
21
  0
DICTIONARY
  5
F
330
A
100
AcDbDictionary
281
1
  3
Standard
350
2C
  0
DICTIONARY
  5
10
330
A
100
AcDbDictionary
281
1
  3
Standard
350
22
  0
DICTIONARY
  5
11
330
A
100
AcDbDictionary
281
1
  0
ACDBDICTIONARYWDFLT
  5
12
330
A
100
AcDbDictionary
281
1
  3
Normal
350
13
100
AcDbDictionaryWithDefault
340
13
  0
ACDBPLACEHOLDER
  5
13
330
12
  0
DICTIONARY
  5
14
330
A
100
AcDbDictionary
281
1
  0
DICTIONARY
  5
15
330
A
100
AcDbDictionary
281
1
  0
DICTIONARY
  5
16
330
A
100
AcDbDictionary
281
1
  3
2dWireframe
350
5A
  3
Basic
350
5B
  3
Brighten
350
5C
  3
ColorChange
350
5D
  3
Conceptual
350
5E
  3
Dim
350
5F
  3
EdgeColorOff
350
60
  3
Facepattern
350
61
  3
Flat
350
62
  3
FlatWithEdges
350
63
  3
Gouraud
350
64
  3
GouraudWithEdges
350
65
  3
Hidden
350
66
  3
JitterOff
350
67
  3
Linepattern
350
68
  3
Modeling
350
69
  3
OverhangOff
350
6A
  3
Realistic
350
6B
  3
Shaded
350
6C
  3
Shaded with edges
350
6D
  3
Shades of Gray
350
6E
  3
Sketchy
350
6F
  3
Thicken
350
70
  3
Wireframe
350
71
  3
X-Ray
350
72
  0
LAYOUT
  5
1A
330
D
100
AcDbPlotSettings
  1

  4
A3
  6

 40
7.5
 41
20.0
 42
7.5
 43
20.0
 44
420.0
 45
297.0
 46
0.0
 47
0.0
 48
0.0
 49
0.0
140
0.0
141
0.0
142
1.0
143
1.0
 70
1024
 72
1
 73
0
 74
5
  7

 75
16
 76
0
 77
2
 78
300
147
1.0
148
0.0
149
0.0
100
AcDbLayout
  1
Model
 70
1
 71
0
 10
0.0
 20
0.0
 11
420.0
 21
297.0
 12
0.0
 22
0.0
 32
0.0
 14
1e+20
 24
1e+20
 34
1e+20
 15
-1e+20
 25
-1e+20
 35
-1e+20
146
0.0
 13
0.0
 23
0.0
 33
0.0
 16
1.0
 26
0.0
 36
0.0
 17
0.0
 27
1.0
 37
0.0
 76
1
330
17
  0
LAYOUT
  5
1E
330
D
100
AcDbPlotSettings
  1

  4
A3
  6

 40
7.5
 41
20.0
 42
7.5
 43
20.0
 44
420.0
 45
297.0
 46
0.0
 47
0.0
 48
0.0
 49
0.0
140
0.0
141
0.0
142
1.0
143
1.0
 70
0
 72
1
 73
0
 74
5
  7

 75
16
 76
0
 77
2
 78
300
147
1.0
148
0.0
149
0.0
100
AcDbLayout
  1
Layout1
 70
1
 71
1
 10
0.0
 20
0.0
 11
420.0
 21
297.0
 12
0.0
 22
0.0
 32
0.0
 14
1e+20
 24
1e+20
 34
1e+20
 15
-1e+20
 25
-1e+20
 35
-1e+20
146
0.0
 13
0.0
 23
0.0
 33
0.0
 16
1.0
 26
0.0
 36
0.0
 17
0.0
 27
1.0
 37
0.0
 76
1
330
1B
  0
MATERIAL
  5
1F
102
{ACAD_REACTORS
330
E
102
}
330
E
100
AcDbMaterial
  1
ByBlock
  2

 70
0
 40
1.0
 71
1
 41
1.0
 91
-1023410177
 42
1.0
 72
1
  3

 73
1
 74
1
 75
1
 44
0.5
 73
0
 45
1.0
 46
1.0
 77
1
  4

 78
1
 79
1
170
1
 48
1.0
171
1
  6

172
1
173
1
174
1
140
1.0
141
1.0
175
1
  7

176
1
177
1
178
1
143
1.0
179
1
  8

270
1
271
1
272
1
145
1.0
146
1.0
273
1
  9

274
1
275
1
276
1
 42
1.0
 72
1
  3

 73
1
 74
1
 75
1
 94
63
  0
MATERIAL
  5
20
102
{ACAD_REACTORS
330
E
102
}
330
E
100
AcDbMaterial
  1
ByLayer
  2

 70
0
 40
1.0
 71
1
 41
1.0
 91
-1023410177
 42
1.0
 72
1
  3

 73
1
 74
1
 75
1
 44
0.5
 73
0
 45
1.0
 46
1.0
 77
1
  4

 78
1
 79
1
170
1
 48
1.0
171
1
  6

172
1
173
1
174
1
140
1.0
141
1.0
175
1
  7

176
1
177
1
178
1
143
1.0
179
1
  8

270
1
271
1
272
1
145
1.0
146
1.0
273
1
  9

274
1
275
1
276
1
 42
1.0
 72
1
  3

 73
1
 74
1
 75
1
 94
63
  0
MATERIAL
  5
21
102
{ACAD_REACTORS
330
E
102
}
330
E
100
AcDbMaterial
  1
Global
  2

 70
0
 40
1.0
 71
1
 41
1.0
 91
-1023410177
 42
1.0
 72
1
  3

 73
1
 74
1
 75
1
 44
0.5
 73
0
 45
1.0
 46
1.0
 77
1
  4

 78
1
 79
1
170
1
 48
1.0
171
1
  6

172
1
173
1
174
1
140
1.0
141
1.0
175
1
  7

176
1
177
1
178
1
143
1.0
179
1
  8

270
1
271
1
272
1
145
1.0
146
1.0
273
1
  9

274
1
275
1
276
1
 42
1.0
 72
1
  3

 73
1
 74
1
 75
1
 94
63
  0
MLINESTYLE
  5
22
102
{ACAD_REACTORS
330
10
102
}
330
10
100
AcDbMlineStyle
  2
Standard
 70
0
  3

 62
256
 51
90.0
 52
90.0
 71
2
 49
0.5
 62
256
  6
BYLAYER
 49
-0.5
 62
256
  6
BYLAYER
  0
MLEADERSTYLE
  5
2C
102
{ACAD_REACTORS
330
F
102
}
330
F
100
AcDbMLeaderStyle
179
2
170
2
171
1
172
0
 90
2
 40
0.0
 41
0.0
173
1
 91
-1056964608
 92
-2
290
1
 42
2.0
291
1
 43
8.0
  3
Standard
 44
4.0
300

342
29
174
1
175
1
176
0
178
1
 93
-1056964608
 45
4.0
292
0
297
0
 46
4.0
 94
-1056964608
 47
1.0
 49
1.0
140
1.0
294
1
141
0.0
177
0
142
1.0
295
0
296
0
143
3.75
271
0
272
9
273
9
  0
DICTIONARY
  5
2D
330
A
100
AcDbDictionary
280
1
281
1
  3
CREATED_BY_EZDXF
350
2E
  3
WRITTEN_BY_EZDXF
350
269
  0
DICTIONARYVAR
  5
2E
330
2D
100
DictionaryVariables
280
0
  1
1.4.4 @ 2026-06-07T13:50:02.118614+00:00
  0
VISUALSTYLE
  5
5A
102
{ACAD_REACTORS
330
16
102
}
330
16
100
AcDbVisualStyle
  2
2dWireframe
 70
4
 90
0
 40
0.6
 62
7
290
0
291
0
  0
VISUALSTYLE
  5
5B
102
{ACAD_REACTORS
330
16
102
}
330
16
100
AcDbVisualStyle
  2
Basic
 70
7
 90
1
 40
0.6
 62
7
290
0
291
1
  0
VISUALSTYLE
  5
5C
102
{ACAD_REACTORS
330
16
102
}
330
16
100
AcDbVisualStyle
  2
Brighten
 70
12
 90
2
 40
0.6
 62
7
290
0
291
1
  0
VISUALSTYLE
  5
5D
102
{ACAD_REACTORS
330
16
102
}
330
16
100
AcDbVisualStyle
  2
ColorChange
 70
16
 90
2
 40
0.6
 62
8
290
0
291
1
  0
VISUALSTYLE
  5
5E
102
{ACAD_REACTORS
330
16
102
}
330
16
100
AcDbVisualStyle
  2
Conceptual
 70
9
 90
3
 40
0.6
 62
7
290
0
291
0
  0
VISUALSTYLE
  5
5F
102
{ACAD_REACTORS
330
16
102
}
330
16
100
AcDbVisualStyle
  2
Dim
 70
11
 90
2
 40
0.6
 62
7
290
0
291
1
  0
VISUALSTYLE
  5
60
102
{ACAD_REACTORS
330
16
102
}
330
16
100
AcDbVisualStyle
  2
EdgeColorOff
 70
22
 90
2
 40
0.6
 62
7
290
0
291
1
  0
VISUALSTYLE
  5
61
102
{ACAD_REACTORS
330
16
102
}
330
16
100
AcDbVisualStyle
  2
Facepattern
 70
15
 90
2
 40
0.6
 62
7
290
0
291
1
  0
VISUALSTYLE
  5
62
102
{ACAD_REACTORS
330
16
102
}
330
16
100
AcDbVisualStyle
  2
Flat
 70
0
 90
2
 40
0.6
 62
7
290
0
291
1
  0
VISUALSTYLE
  5
63
102
{ACAD_REACTORS
330
16
102
}
330
16
100
AcDbVisualStyle
  2
FlatWithEdges
 70
1
 90
2
 40
0.6
 62
7
290
0
291
1
  0
VISUALSTYLE
  5
64
102
{ACAD_REACTORS
330
16
102
}
330
16
100
AcDbVisualStyle
  2
Gouraud
 70
2
 90
2
 40
0.6
 62
7
290
0
291
1
  0
VISUALSTYLE
  5
65
102
{ACAD_REACTORS
330
16
102
}
330
16
100
AcDbVisualStyle
  2
GouraudWithEdges
 70
3
 90
2
 40
0.6
 62
7
290
0
291
1
  0
VISUALSTYLE
  5
66
102
{ACAD_REACTORS
330
16
102
}
330
16
100
AcDbVisualStyle
  2
Hidden
 70
6
 90
1
 40
0.6
 62
7
290
0
291
0
  0
VISUALSTYLE
  5
67
102
{ACAD_REACTORS
330
16
102
}
330
16
100
AcDbVisualStyle
  2
JitterOff
 70
20
 90
2
 40
0.6
 62
7
290
0
291
1
  0
VISUALSTYLE
  5
68
102
{ACAD_REACTORS
330
16
102
}
330
16
100
AcDbVisualStyle
  2
Linepattern
 70
14
 90
2
 40
0.6
 62
7
290
0
291
1
  0
VISUALSTYLE
  5
69
102
{ACAD_REACTORS
330
16
102
}
330
16
100
AcDbVisualStyle
  2
Modeling
 70
10
 90
2
 40
0.6
 62
7
290
0
291
0
  0
VISUALSTYLE
  5
6A
102
{ACAD_REACTORS
330
16
102
}
330
16
100
AcDbVisualStyle
  2
OverhangOff
 70
21
 90
2
 40
0.6
 62
7
290
0
291
1
  0
VISUALSTYLE
  5
6B
102
{ACAD_REACTORS
330
16
102
}
330
16
100
AcDbVisualStyle
  2
Realistic
 70
8
 90
2
 40
0.6
 62
7
290
0
291
0
  0
VISUALSTYLE
  5
6C
102
{ACAD_REACTORS
330
16
102
}
330
16
100
AcDbVisualStyle
  2
Shaded
 70
27
 90
2
 40
0.6
 62
7
290
0
291
0
  0
VISUALSTYLE
  5
6D
102
{ACAD_REACTORS
330
16
102
}
330
16
100
AcDbVisualStyle
  2
Shaded with edges
 70
26
 90
2
 40
0.6
 62
7
290
0
291
0
  0
VISUALSTYLE
  5
6E
102
{ACAD_REACTORS
330
16
102
}
330
16
100
AcDbVisualStyle
  2
Shades of Gray
 70
23
 90
2
 40
0.6
 62
7
290
0
291
0
  0
VISUALSTYLE
  5
6F
102
{ACAD_REACTORS
330
16
102
}
330
16
100
AcDbVisualStyle
  2
Sketchy
 70
24
 90
1
 40
0.6
 62
7
290
0
291
0
  0
VISUALSTYLE
  5
70
102
{ACAD_REACTORS
330
16
102
}
330
16
100
AcDbVisualStyle
  2
Thicken
 70
13
 90
2
 40
0.6
 62
7
290
0
291
1
  0
VISUALSTYLE
  5
71
102
{ACAD_REACTORS
330
16
102
}
330
16
100
AcDbVisualStyle
  2
Wireframe
 70
5
 90
0
 40
0.6
 62
7
290
0
291
0
  0
VISUALSTYLE
  5
72
102
{ACAD_REACTORS
330
16
102
}
330
16
100
AcDbVisualStyle
  2
X-Ray
 70
25
 90
2
 40
0.5
 62
7
290
0
291
0
  0
DICTIONARYVAR
  5
269
330
2D
100
DictionaryVariables
280
0
  1
1.4.4 @ 2026-06-07T13:50:02.126876+00:00
  0
ENDSEC
  0
EOF
